<?xml version="1.0" standalone="no"?>
<!DOCTYPE svg PUBLIC "-//W3C//DTD SVG 20010904//EN"
 "http://www.w3.org/TR/2001/REC-SVG-20010904/DTD/svg10.dtd">
<svg version="1.0" xmlns="http://www.w3.org/2000/svg"
 width="828.000000pt" height="976.000000pt" viewBox="0 0 828.000000 976.000000"
 preserveAspectRatio="xMidYMid meet">

<g transform="translate(0.000000,976.000000) scale(0.100000,-0.100000)"
fill="#000000" stroke="none">
<path d="M4186 9720 c-37 -37 -44 -40 -97 -40 -31 0 -76 7 -99 15 -23 8 -58
15 -76 15 -103 0 -285 -121 -383 -255 -67 -93 -76 -119 -75 -224 0 -53 6 -113
13 -133 17 -50 117 -146 196 -188 36 -19 65 -38 65 -42 0 -4 -17 -16 -37 -27
-21 -11 -61 -37 -90 -58 -28 -21 -59 -43 -70 -50 -17 -11 -17 -12 2 -12 12 -1
65 28 118 64 54 36 102 65 108 65 5 0 7 5 3 11 -4 7 1 10 12 7 12 -2 21 -15
25 -38 10 -61 67 -179 132 -273 22 -31 38 -60 35 -62 -10 -10 -57 37 -104 103
-26 37 -50 71 -54 75 -10 12 -109 -53 -104 -67 3 -7 42 -32 88 -56 112 -59
196 -136 202 -188 4 -38 22 -83 40 -103 13 -15 9 -21 -38 -64 -70 -63 -146
-111 -238 -151 -97 -41 -120 -48 -120 -35 0 6 -26 64 -57 129 -71 144 -73 170
-20 332 46 144 50 151 74 127 17 -17 17 -20 -6 -80 -13 -34 -32 -93 -43 -132
-24 -89 -13 -150 45 -252 55 -97 74 -96 36 3 -16 41 -29 81 -29 87 0 7 -9 30
-21 51 l-20 38 38 114 c28 84 42 114 55 114 27 0 26 -18 -5 -124 -16 -56 -29
-106 -29 -112 -1 -9 61 -222 68 -232 4 -7 54 11 54 19 0 5 -18 48 -40 95 -23
47 -43 98 -46 114 -6 26 30 174 46 193 4 4 17 0 29 -10 21 -18 22 -20 7 -74
-8 -31 -17 -81 -20 -110 -6 -48 -3 -60 26 -114 24 -44 39 -61 57 -63 17 -3 22
0 18 10 -66 151 -69 162 -62 231 4 37 11 69 16 72 4 3 17 0 29 -7 18 -11 20
-19 14 -57 -11 -74 -10 -93 11 -158 21 -67 22 -68 45 -53 12 8 11 18 -9 72
-33 88 -34 100 -19 137 l13 33 27 -21 c14 -12 37 -21 50 -20 22 0 22 1 4 12
-11 7 -28 20 -39 30 -26 26 -127 98 -219 159 -43 28 -78 55 -78 60 0 5 8 12
18 15 48 18 174 123 147 123 -9 0 -131 -79 -153 -99 -30 -28 -45 -27 -85 9
-42 36 -47 37 -47 6 0 -25 -10 -60 -66 -235 -19 -57 -34 -113 -34 -124 0 -23
15 -74 36 -125 31 -74 73 -213 68 -227 -10 -25 5 -36 29 -21 12 7 51 21 87 30
36 10 94 29 130 42 78 29 246 134 278 175 25 31 42 37 42 16 0 -24 -160 -164
-246 -215 -70 -41 -136 -61 -225 -68 -44 -4 -79 -10 -79 -15 0 -16 64 -20 127
-9 59 12 70 11 100 -5 51 -28 75 -76 80 -159 6 -111 4 -114 -232 -237 -84 -43
-262 -158 -377 -242 -49 -35 -72 -47 -80 -40 -7 6 -24 13 -38 16 -38 10 -256
164 -246 175 2 1 37 -7 79 -18 65 -18 84 -19 141 -10 105 17 248 81 321 145
29 26 29 26 5 20 -67 -16 -499 -50 -509 -40 -3 3 0 14 7 23 6 9 22 38 34 65
17 36 27 47 44 47 36 0 37 -17 4 -41 -16 -13 -30 -28 -30 -35 0 -28 83 -21
102 9 4 7 8 24 8 38 0 25 3 26 63 32 118 11 315 86 365 139 l22 25 -185 -5
c-113 -3 -190 -1 -196 5 -6 6 1 35 21 81 16 39 30 84 30 99 0 15 7 46 15 68
15 43 20 105 7 105 -11 0 -122 -115 -177 -185 -79 -99 -80 -99 -90 60 -5 74
-13 114 -31 154 -24 53 -25 54 -40 33 -35 -51 -44 -91 -44 -204 0 -125 19
-228 50 -270 11 -15 23 -40 26 -56 6 -29 -26 -124 -44 -130 -6 -2 -26 19 -44
46 -18 27 -82 100 -141 163 -125 131 -140 132 -97 5 31 -91 66 -165 105 -216
14 -19 22 -36 17 -38 -5 -1 -33 8 -63 22 -72 32 -255 86 -290 86 -78 0 -203
-88 -473 -334 -200 -183 -322 -271 -471 -342 -96 -45 -181 -123 -220 -201 -27
-52 -30 -68 -30 -148 0 -83 3 -95 35 -154 69 -128 223 -185 345 -127 60 29 96
62 153 139 24 32 47 55 53 52 15 -10 49 -82 49 -105 0 -12 -13 -40 -30 -63
-16 -23 -42 -67 -57 -97 -31 -60 -47 -68 -66 -31 -21 41 -42 48 -74 24 -42
-31 -37 -78 16 -144 40 -51 48 -78 24 -86 -6 -2 -31 22 -55 53 -99 131 -198
218 -290 253 -23 9 -26 8 -21 -7 3 -9 11 -23 17 -31 5 -7 17 -32 26 -55 44
-120 79 -165 257 -327 18 -16 37 -46 42 -66 22 -85 23 -93 12 -93 -7 0 -58 35
-114 79 -94 72 -137 101 -151 101 -12 0 55 -164 85 -211 66 -104 191 -199 262
-199 9 0 26 -15 37 -32 l20 -33 -21 -3 c-11 -2 -31 7 -45 21 -31 32 -134 62
-254 76 -52 5 -96 9 -98 7 -2 -2 23 -30 55 -63 78 -78 150 -112 277 -129 156
-21 146 -16 146 -78 0 -29 -3 -55 -6 -58 -3 -4 -22 0 -41 9 -66 27 -108 -4
-76 -55 24 -38 34 -43 67 -36 28 6 29 6 22 -27 -4 -19 -11 -58 -15 -86 -9 -65
-15 -71 -41 -48 -39 35 -72 108 -72 155 1 41 -4 50 -51 98 -58 60 -133 116
-140 105 -15 -25 -50 -161 -62 -245 -22 -142 -19 -263 9 -419 56 -307 112
-492 228 -744 54 -118 91 -246 75 -262 -3 -3 -30 29 -61 70 -56 76 -201 217
-223 217 -32 0 45 -231 109 -327 58 -86 84 -108 137 -117 50 -8 63 -26 92
-130 12 -44 26 -87 32 -97 17 -28 1 -52 -31 -44 -36 9 -50 21 -72 64 -30 59
-161 202 -241 263 -62 47 -147 98 -163 98 -15 0 40 -134 73 -174 5 -6 21 -35
36 -64 31 -60 89 -112 159 -141 26 -12 46 -26 44 -32 -2 -6 -27 -20 -56 -31
-30 -11 -71 -38 -96 -62 -49 -49 -152 -209 -137 -214 6 -2 63 24 128 57 65 34
122 61 126 61 16 0 4 -22 -48 -87 -30 -37 -50 -69 -45 -71 4 -2 26 5 47 16 21
11 72 29 113 41 102 31 164 66 215 123 24 26 48 48 54 48 22 0 89 -39 108 -63
10 -13 36 -32 58 -43 22 -10 40 -25 40 -32 0 -12 -125 -95 -133 -88 -2 3 4 16
13 30 15 23 15 26 2 32 -9 3 -26 4 -39 2 -21 -3 -23 -8 -20 -45 l3 -43 -93 0
c-78 0 -252 -23 -347 -46 -39 -9 -8 -22 69 -29 36 -4 77 -11 91 -16 14 -5 61
-15 104 -22 43 -7 80 -17 82 -22 2 -6 -13 -17 -32 -24 -77 -27 -148 -126 -217
-299 -40 -99 -44 -115 -31 -128 13 -12 21 -11 66 13 71 39 181 152 218 224 16
33 33 57 38 55 4 -3 11 -46 15 -95 7 -99 21 -151 41 -151 14 0 41 69 80 205
35 121 34 150 -6 224 -18 33 -31 62 -29 64 53 39 192 127 202 127 7 0 28 -9
47 -21 l33 -20 -60 -57 c-68 -64 -86 -109 -73 -177 19 -99 74 -139 296 -213
147 -49 304 -117 396 -173 91 -54 138 -60 212 -26 30 15 66 42 81 62 15 19 31
35 36 35 10 0 113 -60 145 -84 18 -13 18 -16 5 -29 -29 -27 -137 -60 -172 -52
-66 16 -364 8 -417 -11 -42 -14 105 -96 203 -113 47 -8 57 -26 20 -35 -15 -4
-55 -35 -89 -69 -62 -63 -215 -258 -215 -276 0 -5 35 4 78 21 42 16 86 32 97
35 74 22 234 152 250 204 6 18 25 27 25 12 1 -47 35 -203 55 -258 14 -38 31
-86 36 -105 14 -46 22 -53 41 -38 25 19 40 179 29 303 -10 109 -22 151 -58
206 -29 44 -24 59 29 89 l41 23 23 -26 23 -26 30 49 c17 28 36 50 42 50 17 0
129 -52 129 -59 -1 -3 -20 -20 -44 -38 -24 -18 -61 -53 -82 -79 -37 -45 -39
-50 -39 -120 0 -64 3 -77 30 -115 17 -24 52 -57 78 -73 42 -26 57 -29 115 -28
47 1 86 10 129 28 55 23 65 33 85 73 29 59 36 172 15 234 -20 60 -134 222
-199 283 -65 61 -165 128 -280 187 -85 43 -212 86 -224 74 -3 -3 4 -36 15 -75
12 -38 21 -89 21 -113 0 -40 -4 -47 -62 -101 -75 -70 -78 -70 -238 11 -123 63
-166 81 -302 132 -49 18 -88 35 -88 38 0 4 16 15 35 25 46 25 112 97 132 144
33 80 -4 172 -109 271 -181 169 -502 499 -567 581 -125 158 -204 334 -286 640
-52 193 -75 375 -75 592 0 178 9 273 32 331 14 37 23 34 43 -15 26 -68 75
-138 107 -154 16 -8 50 -18 76 -21 59 -7 127 23 174 75 34 39 82 139 116 237
76 225 71 656 -13 990 -37 151 -76 253 -146 383 -90 169 -171 255 -299 316
-54 26 -77 31 -137 31 -40 0 -69 3 -65 6 4 3 45 29 92 59 122 76 216 149 349
270 256 233 422 355 481 353 46 -1 200 -52 292 -97 40 -20 135 -82 210 -139
76 -56 158 -114 183 -129 53 -32 55 -47 20 -114 -14 -26 -25 -55 -25 -65 0
-11 -3 -19 -6 -19 -3 0 -49 31 -103 68 -174 123 -408 262 -440 262 -5 0 -66
-56 -134 -124 -69 -68 -175 -165 -236 -215 -60 -50 -112 -100 -116 -109 -3
-12 20 -67 60 -145 l66 -126 -60 -48 c-33 -26 -60 -54 -60 -60 -1 -7 24 -57
54 -111 60 -107 113 -243 144 -367 40 -161 74 -473 87 -801 6 -147 5 -167 -14
-231 -39 -127 -177 -301 -286 -359 -28 -15 -89 -36 -136 -48 l-85 -21 -3 -79
c-4 -110 40 -374 85 -506 89 -264 275 -523 531 -737 189 -159 377 -282 727
-478 77 -43 181 -102 230 -130 50 -29 114 -65 143 -79 29 -15 86 -49 126 -76
41 -28 77 -50 80 -50 22 0 149 -103 250 -203 102 -100 129 -134 156 -190 27
-58 30 -74 24 -110 -4 -23 -8 -64 -8 -92 l-1 -50 -145 -6 c-80 -3 -156 -11
-170 -17 -20 -10 -7 -11 68 -6 128 9 448 9 552 0 70 -6 81 -5 65 6 -11 6 -87
16 -173 22 l-153 10 1 50 c1 28 -1 70 -5 93 -12 70 37 157 157 275 127 125
157 149 303 241 134 84 227 138 525 304 113 63 228 129 257 146 29 18 78 47
110 66 67 38 274 185 348 245 144 117 281 256 344 349 132 195 175 277 227
434 19 59 39 140 44 178 6 39 14 88 20 110 6 22 13 95 17 161 l6 121 -79 18
c-157 34 -264 112 -360 263 -70 109 -74 122 -74 287 0 294 22 546 70 786 45
223 90 351 176 499 52 90 52 91 -10 134 -86 59 -86 50 -17 185 34 66 61 126
61 133 0 17 -62 77 -156 151 -40 31 -129 113 -199 182 l-128 127 -41 -40
c-118 -113 -373 -269 -523 -320 -141 -49 -503 -108 -503 -83 0 16 198 181 268
223 54 33 80 43 132 47 72 7 53 -4 312 182 140 102 215 144 326 184 114 41
157 47 198 30 68 -28 214 -141 393 -304 198 -179 307 -262 429 -326 67 -35 70
-41 22 -43 -209 -8 -383 -163 -512 -455 -90 -204 -131 -382 -154 -668 -19
-241 -10 -371 38 -559 64 -248 151 -359 283 -360 69 0 111 34 174 139 l56 93
14 -43 c12 -34 15 -107 15 -329 1 -283 0 -286 -31 -435 -48 -223 -122 -456
-191 -592 -20 -41 -72 -121 -114 -176 -78 -103 -460 -498 -575 -595 -43 -36
-70 -70 -92 -113 -35 -70 -38 -105 -15 -171 17 -52 105 -143 148 -154 38 -9
32 -22 -16 -34 -90 -23 -298 -112 -388 -166 -19 -12 -56 -29 -81 -39 l-47 -17
-56 36 c-99 63 -116 123 -72 250 l24 68 -34 -5 c-100 -16 -315 -127 -423 -217
-113 -96 -230 -262 -253 -361 -14 -60 2 -174 29 -216 17 -25 17 -25 -5 -19
-12 4 -22 5 -22 2 0 -2 29 -14 65 -26 36 -12 67 -26 70 -31 11 -17 147 -10
191 10 111 51 158 200 93 296 -33 49 -84 98 -124 118 l-30 15 65 31 c36 17 73
31 82 31 17 0 75 -77 80 -107 2 -10 -3 -18 -9 -19 -7 -1 -17 -2 -22 -3 -14 -2
-23 -36 -16 -64 5 -18 15 -26 36 -29 36 -6 43 12 35 90 -11 95 18 105 89 32
l38 -39 -26 -10 c-55 -21 -78 -118 -76 -325 2 -162 7 -199 31 -204 20 -4 62
80 74 146 4 20 13 46 20 57 8 11 14 33 14 49 0 28 20 146 27 155 3 4 60 -55
93 -97 24 -30 149 -112 170 -112 9 0 21 -5 26 -10 14 -14 142 -60 166 -60 16
0 14 7 -19 47 -158 197 -248 292 -300 316 -30 13 -29 27 1 27 74 0 268 92 234
111 -8 4 -60 11 -114 15 -54 3 -117 8 -139 10 -57 7 -70 7 -170 -1 -83 -6 -93
-4 -130 17 -54 32 -55 49 -3 78 24 13 54 32 67 42 34 26 50 23 87 -20 19 -22
52 -46 78 -56 26 -10 44 -22 40 -27 -13 -22 59 -6 117 26 138 77 271 135 416
184 234 78 279 104 323 192 26 50 25 70 -5 127 -30 58 -50 82 -94 112 l-34 23
29 24 c16 12 39 23 50 23 20 0 93 -44 155 -94 15 -12 35 -26 45 -32 17 -10 17
-12 -8 -43 -15 -17 -32 -47 -37 -67 -14 -51 6 -169 44 -259 7 -16 18 -45 25
-63 7 -18 21 -37 31 -43 11 -5 19 -8 19 -6 0 2 4 27 10 56 5 28 12 77 15 108
5 52 10 72 18 62 2 -2 24 -35 50 -74 25 -38 57 -81 69 -95 31 -33 103 -90 115
-90 6 0 18 -9 28 -20 23 -25 65 -27 65 -3 0 20 -66 179 -107 260 -31 60 -121
155 -163 173 -17 7 -30 16 -30 20 0 4 30 11 68 15 37 3 100 15 141 26 41 10
93 19 116 19 103 0 35 27 -139 55 -50 8 -130 15 -178 15 l-88 0 0 29 c0 34
-26 65 -47 57 -8 -3 -17 -6 -19 -6 -2 0 -4 -6 -4 -14 0 -29 -23 -27 -71 5 -27
19 -49 37 -49 41 0 6 17 19 71 53 8 6 44 29 79 52 50 33 68 40 82 32 10 -5 18
-14 18 -19 0 -19 71 -88 108 -106 61 -29 292 -112 292 -104 0 3 -25 40 -55 80
-50 67 -63 90 -50 90 2 0 66 -36 142 -79 76 -44 140 -78 142 -76 2 2 -6 19
-17 37 -11 18 -36 60 -56 93 -56 96 -142 170 -218 189 -38 9 -35 23 8 41 68
28 194 144 194 178 0 5 9 20 20 34 11 14 20 34 20 44 0 9 4 19 8 21 13 5 62
118 52 118 -20 0 -127 -64 -185 -110 -84 -67 -187 -185 -231 -264 l-37 -68
-36 7 c-20 4 -37 8 -39 10 -1 1 9 37 22 79 14 42 31 96 37 119 15 55 25 67 62
67 68 0 175 156 236 342 39 120 29 122 -80 19 -53 -50 -113 -116 -133 -146
-21 -30 -41 -55 -45 -55 -17 0 21 137 63 230 109 236 168 424 228 720 18 86
22 141 22 300 0 202 -10 269 -58 384 -14 34 -17 36 -38 25 -13 -7 -54 -42 -91
-78 l-68 -65 -25 27 c-28 30 -60 35 -90 12 -36 -27 -44 -19 -44 44 0 68 -6 64
120 77 99 10 182 39 247 88 68 51 109 93 100 103 -4 4 -60 1 -125 -6 -104 -10
-124 -16 -187 -50 -38 -21 -78 -41 -88 -44 -16 -6 -16 -4 -2 22 10 20 29 34
61 45 104 35 193 111 258 220 35 58 82 183 73 192 -8 8 -178 -111 -216 -150
-19 -20 -39 -36 -43 -36 -13 0 -9 50 6 78 8 15 17 39 20 53 4 18 22 37 56 59
64 41 130 115 181 201 21 37 39 70 39 73 0 3 12 30 26 61 15 31 24 59 20 63
-14 13 -119 -53 -192 -121 -42 -39 -93 -97 -115 -129 -22 -32 -44 -58 -49 -58
-18 0 -10 43 14 74 47 62 59 95 46 127 -13 30 -41 43 -81 37 -20 -2 -25 -11
-29 -43 l-6 -40 -19 34 c-11 18 -44 69 -72 113 -29 43 -53 89 -52 101 1 26 39
99 55 104 6 2 28 -21 48 -51 103 -155 238 -201 383 -130 56 27 91 63 126 128
18 35 22 57 22 146 0 94 -3 110 -27 156 -41 79 -103 133 -219 193 -167 87
-292 181 -575 435 -115 103 -220 183 -283 216 -37 18 -55 22 -105 17 -66 -6
-192 -45 -268 -83 -27 -14 -48 -22 -48 -18 0 3 16 33 35 66 53 89 87 176 115
287 8 31 -3 22 -116 -90 -69 -68 -141 -150 -161 -181 -20 -32 -39 -58 -43 -58
-4 0 -15 27 -25 61 -16 52 -17 65 -6 92 39 97 63 180 71 245 7 61 13 79 36
103 16 16 39 32 51 35 29 8 29 15 -1 43 -15 14 -23 32 -21 47 2 26 -19 34 -28
10 -4 -9 -14 -12 -25 -9 -28 7 -62 -14 -62 -37 0 -11 -4 -20 -9 -20 -5 0 -12
-10 -16 -22 -4 -14 -8 -18 -12 -10 -9 23 -18 12 -18 -25 0 -23 -5 -38 -15 -41
-12 -4 -13 -2 -2 9 16 18 17 48 0 31 -15 -15 -64 -16 -73 -2 -3 6 1 10 10 10
19 0 86 70 79 82 -3 5 -22 -9 -43 -32 -20 -22 -44 -40 -54 -40 -24 0 -17 -29
17 -65 30 -32 56 -83 56 -111 0 -29 -28 4 -61 72 -21 46 -37 66 -54 70 -13 3
-32 15 -42 26 -18 21 -18 21 17 15 37 -7 79 7 50 17 -8 2 -31 7 -52 10 -20 4
-39 13 -42 21 -9 24 -29 17 -24 -8 4 -20 1 -23 -19 -19 -18 3 -23 0 -23 -16 0
-12 5 -24 10 -27 6 -3 10 -1 10 5 0 14 52 9 57 -5 4 -14 -65 -11 -80 4 -6 6
-19 11 -28 11 -27 0 -34 21 -10 27 11 3 18 9 16 14 -3 4 -13 6 -23 3 -11 -4
-9 1 7 16 l25 21 -29 -7 c-16 -4 -35 -7 -42 -7 -7 0 -13 -6 -13 -14 0 -24 -20
-14 -60 30 -37 39 -50 66 -32 68 4 1 30 2 58 3 32 1 61 9 79 21 15 11 39 28
54 38 l26 19 -35 -6 c-19 -3 -81 -11 -137 -17 -118 -15 -143 -8 -169 43 -9 18
-21 35 -25 39 -5 3 -12 26 -15 52 -6 40 -4 46 8 42 8 -3 21 -17 28 -31 7 -13
20 -24 27 -24 8 0 27 -7 44 -15 25 -14 30 -14 35 -1 4 11 13 12 41 4 39 -11
51 -5 35 15 -7 8 -10 16 -8 18 3 2 -13 3 -34 1 -22 -2 -52 3 -69 11 -20 10
-31 11 -34 4 -2 -6 -11 -8 -23 -3 -15 6 -8 11 36 26 106 35 200 63 204 59 1
-2 19 -33 40 -69 20 -36 42 -73 49 -83 9 -13 9 -19 0 -25 -8 -5 -6 -13 7 -30
20 -24 31 -29 28 -11 -5 22 20 19 50 -6 16 -14 32 -25 36 -25 3 0 31 -12 61
-26 89 -40 88 -22 0 21 -130 63 -186 123 -242 260 -14 33 -29 67 -33 76 -12
22 -1 59 17 59 8 0 12 4 9 9 -3 5 -14 7 -24 4 -32 -8 -54 99 -68 327 -3 52 -9
109 -14 125 -11 42 -11 112 1 94 5 -8 9 -22 9 -31 0 -18 37 -44 48 -34 3 4 -5
16 -17 27 -14 13 -22 31 -21 47 3 43 1 46 -20 27 -19 -17 -20 -17 -25 1 -20
63 -136 255 -198 326 -49 56 -133 106 -229 137 -21 7 -40 16 -43 21 -3 4 -51
8 -107 8 l-103 1 -39 -39z m74 -20 c25 -18 28 -18 26 -2 0 9 5 17 12 16 6 -1
24 -2 38 -2 21 -2 25 -6 21 -22 -3 -13 1 -21 14 -25 11 -4 35 -22 53 -41 34
-35 35 -35 65 -19 41 21 39 31 -7 39 -21 3 -47 15 -58 27 l-19 21 50 -7 c121
-16 180 -50 259 -147 55 -66 133 -211 151 -281 15 -60 10 -71 -57 -113 -21
-14 -38 -31 -38 -40 0 -11 15 -3 46 25 54 48 71 51 84 16 11 -28 29 -196 23
-207 -2 -4 -21 -12 -42 -18 -25 -6 -54 -26 -81 -56 -48 -52 -49 -69 -1 -25 32
30 92 56 113 49 7 -3 17 -34 23 -71 11 -66 11 -67 -11 -67 -13 0 -25 -4 -28
-9 -3 -4 -32 -18 -65 -30 -33 -12 -63 -26 -66 -31 -5 -9 21 -2 81 20 29 10 34
9 62 -19 17 -17 40 -31 51 -31 15 0 21 -6 21 -20 0 -12 7 -34 15 -49 14 -28
14 -29 -18 -35 -18 -4 -48 -9 -67 -12 -19 -3 -60 -13 -90 -24 -95 -32 -101
-31 -117 20 -7 25 -20 66 -28 91 -14 42 -13 48 5 84 11 22 20 51 20 65 -1 42
-36 185 -53 211 -8 13 -24 41 -35 62 -17 32 -21 35 -32 22 -10 -12 -10 -15 1
-16 15 0 59 -86 83 -164 22 -70 23 -159 2 -180 -9 -9 -16 -29 -16 -45 0 -21
-12 -40 -42 -69 -50 -48 -91 -69 -152 -77 -56 -8 -61 -24 -7 -24 53 0 101 18
136 51 57 54 70 39 96 -110 29 -161 -8 -281 -129 -418 -103 -116 -115 -146
-110 -257 4 -70 10 -101 28 -134 41 -77 16 -132 -112 -243 -79 -67 -227 -144
-353 -183 -95 -29 -219 -50 -242 -42 -24 10 -11 63 31 129 20 32 40 65 43 75
4 9 26 47 50 84 24 36 43 69 43 73 0 3 -33 -34 -74 -83 -41 -49 -87 -99 -102
-111 -33 -26 -28 -31 -58 69 -25 86 -24 110 2 127 22 15 22 15 22 -41 0 -66
12 -66 29 -2 8 34 19 49 45 66 38 23 96 85 96 101 0 27 34 79 51 79 16 0 19
-8 19 -44 0 -25 5 -48 10 -51 19 -12 29 42 20 102 -17 103 -20 99 58 93 75 -5
102 -3 102 9 0 5 -45 12 -100 16 -65 4 -105 12 -114 21 -8 8 -25 14 -38 14
-27 0 -67 25 -56 35 11 11 69 -6 90 -27 14 -14 23 -16 32 -9 6 6 22 8 34 4 46
-12 19 6 -57 37 -83 35 -89 45 -43 72 44 27 82 59 167 139 44 41 98 89 120
106 22 17 49 47 59 67 19 37 19 37 -1 79 -27 55 -109 105 -138 83 -17 -12 -14
-14 26 -27 28 -9 48 -22 54 -36 5 -13 18 -23 28 -23 10 0 21 -10 26 -22 7 -19
2 -29 -28 -57 -43 -40 -111 -85 -111 -73 0 7 21 24 92 75 20 14 14 67 -9 67
-14 0 -37 12 -106 58 -48 32 -174 210 -214 304 -12 26 -11 28 33 48 25 11 63
24 83 30 20 5 45 17 56 25 19 15 18 16 -20 10 -22 -3 -69 -20 -104 -36 -35
-16 -65 -28 -67 -26 -2 1 -7 22 -12 45 l-10 42 42 0 c22 0 70 9 106 20 36 11
70 20 75 20 22 0 38 -48 45 -140 8 -106 22 -141 75 -194 60 -60 195 -79 255
-36 15 11 32 20 38 20 13 0 22 35 22 84 0 46 -23 76 -57 76 -25 0 -32 24 -9
33 14 6 62 141 86 246 12 52 9 207 -6 304 -9 54 9 48 81 -25 45 -47 66 -79 83
-124 32 -88 27 -95 -23 -41 -42 44 -65 58 -65 39 0 -5 18 -24 40 -42 28 -24
53 -60 82 -122 23 -48 43 -87 44 -85 2 2 -6 36 -17 77 -26 94 -37 150 -45 221
-5 47 -13 63 -45 98 -22 23 -39 48 -39 55 0 8 -16 42 -36 77 l-35 63 38 32
c21 18 35 35 31 39 -10 11 -58 -22 -58 -40 0 -34 -26 -22 -93 42 -40 38 -86
74 -102 79 -69 25 -105 35 -113 30 -4 -2 -14 0 -22 5 -13 8 -12 12 4 24 25 19
22 19 56 -5z m-280 -20 c13 -8 13 -10 0 -14 -99 -34 -136 -46 -146 -46 -14 0
-73 -55 -103 -98 -13 -18 -25 -31 -27 -29 -3 2 0 24 5 47 9 39 8 41 -6 27 -9
-9 -17 -35 -18 -59 -1 -24 -14 -70 -29 -102 -15 -33 -24 -66 -22 -73 3 -7 1
-13 -4 -13 -5 0 -20 25 -34 55 -14 30 -30 55 -35 55 -15 0 -14 19 2 33 47 46
169 145 212 172 76 49 167 69 205 45z m229 -80 c115 -62 291 -270 227 -270 -7
0 -19 -7 -26 -15 -16 -19 -6 -19 24 1 13 8 26 11 29 7 13 -22 27 -158 24 -238
-3 -72 -11 -112 -42 -203 -21 -63 -49 -130 -62 -149 -17 -25 -20 -34 -9 -30
11 4 18 -1 22 -18 9 -35 -8 -117 -26 -125 -8 -4 -25 -12 -37 -18 -14 -7 -32
-8 -55 -2 -112 32 -192 152 -143 216 15 19 15 19 30 0 18 -23 19 -50 4 -78 -9
-16 -8 -19 3 -16 20 7 23 101 3 118 -18 15 -20 46 -2 57 6 4 17 17 23 28 6 11
41 36 79 55 38 19 70 41 73 48 7 21 -11 14 -93 -37 -44 -27 -81 -48 -83 -46
-8 8 52 109 81 136 l32 30 -35 -17 c-19 -9 -48 -32 -63 -52 -15 -21 -36 -48
-46 -61 l-18 -25 -16 31 c-16 29 -15 32 3 56 11 14 51 48 90 77 67 50 84 70
58 70 -23 0 -72 -37 -158 -119 -47 -45 -87 -81 -90 -81 -3 1 -16 10 -29 20
-18 16 -22 26 -17 47 5 16 3 29 -5 34 -10 6 -10 13 -1 34 14 31 15 45 3 45 -5
0 -11 -12 -13 -27 -3 -28 -3 -28 -22 11 -18 35 -18 41 -4 70 24 48 38 99 38
134 0 41 55 145 99 188 19 19 31 37 27 41 -13 13 -41 -13 -88 -83 -61 -90 -79
-108 -90 -92 -6 10 -10 10 -18 -2 -6 -10 -6 -16 0 -18 6 -2 10 -13 10 -23 0
-11 -5 -17 -10 -14 -6 4 -8 -8 -5 -32 6 -48 -2 -74 -21 -66 -7 3 -14 0 -14 -6
0 -6 5 -11 10 -11 6 0 10 -7 10 -15 0 -13 -12 -15 -67 -13 -49 2 -67 -1 -71
-11 -4 -11 11 -13 76 -10 l81 4 -6 -28 c-4 -22 -2 -26 10 -21 15 5 45 -32 33
-43 -10 -10 -56 7 -53 20 1 6 -5 12 -13 12 -8 0 -14 -7 -12 -15 3 -11 -1 -10
-17 4 -37 33 -42 11 -6 -27 40 -42 42 -43 48 -19 3 14 6 12 15 -9 6 -15 18
-29 26 -32 32 -13 6 -57 -33 -57 -19 0 -162 142 -188 188 -35 60 -45 178 -17
200 13 10 15 16 7 19 -22 8 -15 34 26 102 47 78 84 115 169 165 82 49 99 53
194 44 59 -6 94 -15 137 -38z m173 -48 c67 -57 126 -122 163 -179 36 -53 49
-97 17 -55 -10 12 -34 33 -53 45 -20 12 -59 49 -86 82 -28 34 -73 80 -102 104
-28 24 -51 47 -51 51 0 18 71 -13 112 -48z m-826 -154 c4 -13 17 -37 30 -54
13 -17 24 -38 24 -47 0 -10 4 -17 9 -17 4 0 13 -22 18 -50 6 -27 9 -50 8 -50
-2 0 -30 27 -63 60 -41 41 -66 58 -77 54 -14 -6 -14 -9 0 -30 8 -13 15 -30 15
-39 0 -8 5 -15 10 -15 15 0 12 21 -6 41 -9 10 -11 19 -5 23 5 4 17 -9 26 -27
8 -18 34 -51 55 -72 22 -22 40 -45 40 -52 0 -15 195 -213 210 -213 6 0 10 -4
10 -10 0 -17 -79 -11 -107 8 -18 11 -24 12 -19 3 7 -10 3 -12 -15 -6 -28 9
-129 84 -129 96 0 4 -23 31 -52 58 -48 46 -52 54 -56 103 -10 135 -6 173 23
216 32 48 41 51 51 20z m380 -382 c14 -14 20 -46 8 -46 -12 0 -31 26 -31 43 0
21 4 21 23 3z m1012 -289 c6 -6 13 -24 17 -39 6 -23 4 -26 -13 -21 -12 3 -28
13 -38 24 -14 15 -14 21 -4 34 15 18 24 19 38 2z m-1394 -179 c-50 -124 -70
-222 -55 -275 6 -24 11 -51 11 -60 0 -27 57 -135 91 -172 33 -36 28 -55 -12
-49 -26 3 -72 85 -104 188 -10 30 -23 66 -29 79 -18 38 -10 89 32 216 62 183
59 177 81 166 18 -10 17 -14 -15 -93z m506 -153 c8 -7 31 -18 51 -24 43 -14
71 -41 60 -59 -4 -7 -25 -21 -46 -32 -44 -22 -60 -16 -68 28 l-5 27 22 -27
c12 -16 25 -28 29 -28 18 0 3 31 -38 79 -25 29 -45 55 -45 57 0 6 19 -4 40
-21z m697 -100 c9 -19 31 -44 49 -54 17 -10 55 -47 84 -82 51 -62 90 -90 155
-113 36 -13 32 -6 55 -95 10 -39 27 -82 39 -97 11 -15 21 -31 21 -36 0 -6 -77
-8 -199 -6 l-198 3 16 -22 c20 -26 176 -106 250 -127 81 -24 226 -39 249 -27
32 17 63 -8 83 -69 10 -30 15 -58 11 -61 -10 -9 -365 16 -440 31 -34 7 -65 10
-68 8 -9 -10 91 -77 167 -113 41 -19 101 -41 134 -50 65 -16 156 -20 171 -6 5
4 23 11 39 15 l30 6 -30 -25 c-70 -59 -199 -145 -217 -145 -23 0 -59 21 -231
136 -67 44 -165 106 -217 137 -52 30 -110 72 -128 91 -19 20 -43 36 -55 36
-12 0 -28 4 -35 8 -30 20 -42 150 -20 223 6 22 30 58 52 81 54 55 107 123 134
170 25 44 62 160 62 194 0 35 18 29 37 -11z m723 -140 c0 -19 -21 -65 -31 -65
-4 0 -13 -16 -19 -35 -6 -19 -16 -35 -21 -35 -16 0 -10 26 12 54 12 15 19 29
16 32 -3 3 -1 19 5 35 10 30 38 40 38 14z m-928 -573 l37 -37 -24 -51 c-29
-59 -125 -160 -205 -214 -170 -114 -410 -211 -581 -235 -36 -4 -51 -13 -69
-37 -20 -28 -21 -32 -6 -40 22 -12 23 -146 1 -189 -16 -31 -89 -89 -111 -89
-7 0 -16 -5 -20 -11 -11 -19 66 -1 104 24 50 33 72 84 73 166 1 38 -5 77 -12
88 -22 36 -5 47 117 77 324 78 576 217 698 385 19 25 37 61 41 79 3 17 11 32
16 32 27 0 361 -218 354 -230 -3 -4 -29 -22 -59 -38 -33 -19 -110 -89 -207
-187 -154 -156 -250 -232 -329 -260 -55 -20 -167 -19 -226 1 -45 15 -46 15
-62 -8 -53 -76 -168 -175 -252 -218 -185 -95 -403 -48 -483 104 -38 73 -20
229 33 278 35 32 25 45 -38 51 -102 9 -152 52 -152 130 0 27 7 40 38 64 75 60
311 220 339 230 10 3 28 15 40 26 l22 20 10 -25 c5 -14 23 -80 40 -146 17 -67
38 -139 47 -162 20 -50 31 -50 192 -14 233 52 397 138 525 274 71 74 87 113
68 163 -19 50 -10 50 41 -1z m-1727 -132 c3 -5 2 -10 -4 -10 -5 0 -13 5 -16
10 -3 6 -2 10 4 10 5 0 13 -4 16 -10z m-261 -130 c32 -19 91 -56 131 -82 40
-27 75 -48 78 -48 9 0 140 -91 158 -110 14 -14 14 -19 3 -35 -18 -24 -18 -33
0 -31 7 0 28 -16 45 -38 23 -28 31 -49 31 -77 0 -37 -2 -39 -32 -39 -40 0 -34
-6 15 -13 l37 -6 0 42 c0 39 -11 63 -54 122 -9 12 -12 25 -7 34 7 11 15 10 44
-4 19 -9 43 -25 53 -36 16 -18 16 -20 -1 -39 -10 -11 -13 -20 -8 -20 6 0 16 7
23 15 10 12 21 11 78 -11 82 -30 90 -38 70 -61 -8 -10 -18 -26 -21 -35 -5 -14
-19 -18 -69 -20 -35 0 -47 -3 -28 -5 88 -9 100 -13 100 -37 0 -30 -16 -36 -90
-36 -53 0 -58 2 -53 20 3 11 2 28 -3 37 -6 14 -9 9 -13 -21 -7 -46 -32 -58
-101 -49 -36 5 -40 9 -46 39 -3 19 -4 47 -2 63 3 20 -1 32 -14 40 -26 16 -24
81 2 109 21 23 14 32 -8 10 -9 -9 -15 -8 -26 7 -7 11 -29 24 -47 31 -21 7 -32
17 -30 25 2 8 6 28 7 44 3 25 1 23 -12 -12 -12 -32 -21 -43 -37 -44 -13 -1 -6
-5 16 -10 21 -5 52 -16 69 -25 30 -15 30 -17 25 -70 -5 -51 -4 -56 19 -66 22
-10 24 -17 24 -75 l0 -63 -37 0 c-21 0 -53 9 -71 20 -33 20 -34 22 -30 85 3
57 1 65 -18 74 -17 7 -22 21 -27 68 -5 52 -10 62 -47 96 -46 41 -52 43 -69 23
-13 -15 4 -26 40 -26 28 0 60 -57 57 -100 -3 -33 -5 -35 -38 -32 -90 7 -99 11
-106 48 -3 19 -4 48 -1 63 6 27 2 31 -34 45 -22 9 -51 16 -66 16 -29 0 -103
46 -103 64 1 12 36 54 62 74 14 11 21 10 45 -5 36 -23 43 -32 43 -63 l1 -25
15 29 c14 24 20 27 47 22 17 -4 41 -15 52 -26 22 -20 64 -25 100 -11 15 6 6 9
-33 13 -60 6 -91 29 -93 67 l-1 26 -11 -27 c-6 -17 -18 -28 -29 -28 -26 0 -98
38 -98 52 0 15 50 80 59 76 3 -2 33 -19 65 -38z m3286 -27 c25 -25 55 -60 67
-76 l22 -30 -24 -19 c-22 -17 -25 -27 -25 -85 0 -74 -13 -92 -65 -93 -26 -1
-27 -2 -9 -10 11 -4 27 -26 36 -48 l15 -40 -36 -17 c-20 -10 -55 -24 -78 -31
l-43 -13 0 51 c0 59 19 87 59 89 17 1 20 3 9 6 -13 3 -18 14 -17 36 2 57 14
81 52 103 28 16 34 23 25 32 -16 16 -28 15 -28 -1 0 -20 -44 -37 -95 -37 l-45
0 0 45 c0 25 -4 45 -10 45 -5 0 -10 -20 -10 -45 0 -28 -6 -49 -16 -57 -47 -39
-54 -50 -53 -80 l1 -33 8 34 c10 40 44 70 81 71 15 0 41 3 58 6 l32 7 -6 -44
c-11 -77 -14 -85 -40 -97 -14 -7 -45 -12 -69 -12 -23 0 -61 -9 -84 -20 -22
-11 -61 -20 -87 -20 l-45 0 -1 38 -2 37 -6 -43 c-5 -27 -15 -48 -29 -58 -12
-8 -24 -30 -28 -50 -9 -51 -27 -64 -90 -64 l-54 0 0 34 c0 19 8 44 18 56 15
19 22 21 40 11 11 -6 31 -11 44 -10 16 1 12 4 -14 11 -36 10 -38 12 -38 51 0
63 25 88 160 161 82 44 214 126 222 139 6 9 10 9 16 -1 7 -10 13 -6 27 15 16
26 94 102 105 102 3 1 25 -20 50 -46z m-794 -27 c23 -18 16 -26 -47 -59 -72
-39 -164 -112 -289 -230 -148 -140 -293 -250 -360 -272 -41 -14 -69 -16 -134
-10 l-83 7 -44 -42 c-143 -136 -271 -190 -445 -190 -141 0 -255 42 -336 122
-92 91 -113 237 -47 329 l19 26 -52 7 c-64 9 -104 25 -145 60 -26 22 -31 31
-23 49 52 133 63 153 82 141 4 -3 8 -29 8 -59 0 -51 2 -55 51 -99 44 -40 57
-46 95 -46 50 0 52 -5 24 -57 -33 -61 -45 -134 -32 -197 28 -141 153 -226 335
-227 103 -1 124 4 222 54 63 32 100 61 173 135 l93 94 41 -16 c52 -21 132 -22
199 -2 88 25 174 91 360 272 211 206 280 250 335 210z m946 -124 c37 -35 39
-40 27 -60 -16 -26 -67 -52 -101 -52 -23 0 -24 2 -18 59 5 56 21 91 42 91 5 0
27 -17 50 -38z m-3651 6 c13 -14 19 -37 19 -70 0 -48 0 -48 -32 -48 -21 0 -48
12 -71 30 l-39 28 41 41 c47 47 57 49 82 19z m137 -53 c35 -12 37 -16 40 -59
l3 -46 -38 -1 -38 -1 35 -9 c75 -21 80 -26 80 -96 0 -35 -3 -63 -6 -63 -4 0
-33 15 -65 32 -61 34 -71 48 -74 107 -1 19 -6 36 -11 38 -5 2 -8 -22 -6 -55
l4 -57 -34 -10 c-29 -9 -38 -7 -82 22 -26 18 -53 33 -58 33 -6 0 -33 16 -60
36 -28 19 -53 32 -56 29 -4 -4 5 -16 21 -27 26 -19 27 -22 21 -86 -6 -65 -5
-68 25 -100 17 -18 31 -37 31 -41 0 -4 -11 -18 -25 -31 -23 -22 -26 -22 -43
-6 -11 9 -32 42 -47 74 -15 31 -39 74 -51 94 -13 21 -24 42 -24 47 0 13 171
161 185 161 5 0 26 -16 45 -35 25 -26 43 -35 66 -35 18 0 40 -3 49 -6 14 -6
16 1 15 47 -1 30 -1 57 -1 61 1 9 46 1 99 -17z m3656 -70 c109 -84 109 -84 94
-126 -9 -26 -99 -182 -113 -198 -6 -6 -75 40 -75 50 0 5 7 9 15 9 8 0 22 12
32 26 10 15 29 37 42 50 22 22 22 24 6 40 -12 12 -16 13 -13 3 5 -23 -62 -99
-88 -99 -27 0 -64 36 -64 61 0 49 42 89 92 89 27 0 88 40 88 58 0 8 -12 4 -32
-11 -42 -31 -88 -43 -99 -25 -14 22 -10 87 7 113 9 14 18 25 21 25 2 0 42 -29
87 -65z m-134 -45 c0 -48 -4 -61 -19 -69 -10 -6 -21 -25 -25 -43 l-7 -33 -22
26 c-13 14 -31 28 -40 32 -25 9 -41 56 -28 83 8 18 86 55 134 63 4 0 7 -26 7
-59z m-737 -2 c-6 -7 -16 -30 -22 -50 -7 -20 -19 -42 -27 -48 -8 -8 -14 -30
-14 -56 l0 -44 -62 1 c-35 0 -79 7 -98 15 -19 7 -26 13 -15 11 11 -1 38 9 60
23 22 14 51 28 65 31 25 7 25 7 3 14 -12 4 -24 17 -26 29 -3 17 -5 16 -6 -6
-1 -37 -68 -81 -114 -76 -29 3 -33 7 -38 43 l-6 40 -2 -42 c0 -23 -5 -44 -10
-47 -4 -3 -35 2 -67 10 -33 9 -75 20 -94 24 -83 17 -120 31 -120 45 0 11 13
15 48 16 26 0 67 3 92 5 25 2 70 5 101 7 30 2 59 6 65 9 5 3 58 13 118 23 60
9 118 21 130 25 33 13 50 12 39 -2z m-2565 -64 c19 -13 22 -23 22 -79 0 -64 0
-65 -27 -64 -16 0 -48 8 -72 17 l-45 17 3 60 c1 33 5 63 7 66 6 11 87 -2 112
-17z m2986 -26 c9 -65 -4 -80 -77 -86 -59 -5 -61 -3 -71 48 -8 48 8 68 64 79
78 15 77 16 84 -41z m-3456 28 c15 -8 36 -23 46 -35 11 -12 28 -21 38 -21 28
0 18 -19 -35 -64 l-48 -40 -35 37 c-33 34 -35 40 -29 79 11 65 16 68 63 44z
m-651 -27 c83 -28 187 -109 256 -200 88 -117 221 -460 234 -605 5 -53 2 -65
-18 -93 -12 -17 -19 -34 -16 -38 4 -3 14 2 21 13 8 10 17 16 20 13 11 -10 26
-168 26 -263 0 -74 -2 -87 -14 -77 -7 6 -17 39 -20 74 -9 78 -46 230 -59 238
-5 4 -35 80 -67 170 -75 213 -128 330 -193 431 -95 147 -172 197 -281 184
-149 -17 -201 -196 -76 -261 45 -23 73 -18 118 21 41 35 50 60 36 98 -11 27
-21 18 -27 -25 -5 -38 -18 -55 -58 -79 -38 -22 -127 56 -116 102 14 55 100
128 151 128 41 0 117 -43 163 -93 61 -66 62 -77 10 -150 -80 -111 -142 -152
-232 -151 -71 0 -122 23 -177 81 -83 85 -107 228 -55 329 27 54 114 140 166
165 38 19 135 14 208 -12z m5338 7 c59 -27 108 -80 141 -150 32 -68 34 -207 4
-265 -81 -161 -264 -202 -391 -89 -33 29 -84 96 -99 130 -14 29 -1 57 54 116
68 74 151 93 226 51 95 -54 92 -171 -6 -198 -28 -8 -35 -5 -62 22 -17 18 -34
44 -37 60 -8 28 -35 38 -35 12 0 -27 38 -91 64 -108 32 -21 59 -21 103 0 127
60 73 238 -78 259 -179 25 -329 -176 -491 -656 -53 -158 -84 -258 -93 -300 -2
-8 -9 -35 -16 -60 -6 -25 -15 -92 -19 -150 -6 -103 -11 -90 -16 40 -1 61 28
269 42 291 10 17 7 80 -5 92 -18 18 -13 67 18 188 60 240 160 442 282 573 77
82 137 119 241 146 95 25 113 24 173 -4z m-1397 -51 c4 -62 -11 -75 -90 -75
-55 0 -58 1 -58 25 0 14 6 41 14 60 13 30 19 34 58 38 73 6 73 6 76 -48z
m-3108 -219 c0 -2 -8 -10 -17 -17 -16 -13 -17 -12 -4 4 13 16 21 21 21 13z
m-76 -91 c-20 -25 -38 -45 -40 -45 -14 0 60 88 74 90 2 0 -13 -20 -34 -45z
m3366 35 c-8 -5 -19 -10 -25 -10 -5 0 -3 5 5 10 8 5 20 10 25 10 6 0 3 -5 -5
-10z m-2577 -27 c-7 -2 -19 -2 -25 0 -7 3 -2 5 12 5 14 0 19 -2 13 -5z m2487
-3 c-14 -4 -34 -8 -45 -8 -16 0 -15 2 5 8 14 4 34 8 45 8 16 0 15 -2 -5 -8z
m-217 -17 c-7 -2 -19 -2 -25 0 -7 3 -2 5 12 5 14 0 19 -2 13 -5z m125 0 c-10
-2 -28 -2 -40 0 -13 2 -5 4 17 4 22 1 32 -1 23 -4z m-1354 -124 c34 -27 34
-69 -1 -124 -27 -43 -29 -43 -73 -38 -34 4 -53 13 -78 40 -28 29 -32 39 -27
66 4 18 18 42 31 55 34 30 110 31 148 1z m-1814 -74 c0 -5 -5 -3 -10 5 -5 8
-10 20 -10 25 0 6 5 3 10 -5 5 -8 10 -19 10 -25z m2038 -25 c-2 -43 -6 -59
-15 -56 -8 3 -11 -4 -10 -24 1 -17 5 -30 9 -30 3 0 4 -9 1 -19 -6 -23 -43 -36
-43 -15 0 8 -9 19 -20 26 -11 7 -20 16 -20 21 0 4 4 5 10 2 5 -3 7 0 4 9 -9
22 61 146 83 146 2 0 2 -27 1 -60z m-2543 -10 c16 -33 27 -62 24 -64 -11 -10
-50 16 -64 45 -16 30 -14 79 3 79 5 0 21 -27 37 -60z m4621 26 c6 -17 -24 -86
-37 -86 -5 0 -9 -13 -9 -29 0 -25 5 -31 30 -36 38 -8 63 10 57 42 -8 44 20 5
75 -104 l53 -105 -3 -96 c-1 -53 -6 -100 -11 -105 -5 -5 -16 10 -25 34 -10 23
-36 63 -59 89 -23 26 -58 75 -77 109 -65 114 -70 116 -78 27 -3 -41 2 -73 22
-130 14 -42 26 -96 26 -119 0 -70 26 -140 71 -191 l41 -46 -23 -58 c-29 -73
-36 -80 -47 -51 -5 13 -20 51 -32 84 -33 84 -110 215 -127 215 -13 0 -14 -22
-11 -137 4 -124 7 -144 31 -197 15 -33 40 -76 54 -95 18 -23 31 -58 39 -105
20 -111 22 -106 -40 -106 -62 0 -74 -11 -55 -47 13 -24 18 -25 69 -20 l56 5
12 -66 c6 -36 9 -69 6 -74 -9 -14 -54 -9 -93 11 -162 83 -210 366 -135 791 27
157 145 528 190 601 8 14 24 11 30 -5z m-2624 -53 c12 -27 33 -65 46 -86 14
-20 22 -40 19 -44 -4 -3 -10 3 -13 13 -4 10 -15 27 -25 36 -16 16 -17 16 -22
-1 -2 -10 -13 -20 -24 -23 -19 -5 -20 -1 -17 51 1 31 3 66 3 79 1 33 8 27 33
-25z m2069 16 c-5 -13 -10 -19 -10 -12 -1 15 10 45 15 40 3 -2 0 -15 -5 -28z
m-3522 -69 c1 -13 0 -13 -9 0 -5 8 -9 24 -9 35 l0 20 9 -20 c5 -11 9 -27 9
-35z m3492 -17 c-12 -20 -14 -14 -5 12 4 9 9 14 11 11 3 -2 0 -13 -6 -23z
m-3953 -125 c87 -278 123 -485 124 -712 1 -146 -19 -240 -65 -318 -48 -81
-114 -133 -160 -126 -19 3 -22 9 -21 43 0 22 4 52 7 68 7 25 11 27 62 27 43 0
56 4 65 19 21 40 -19 66 -82 54 -24 -5 -28 -2 -28 18 0 58 30 158 64 214 44
72 65 137 73 226 7 81 -4 182 -20 176 -20 -6 -116 -191 -129 -248 -7 -32 -17
-59 -23 -61 -11 -3 -64 88 -65 110 0 7 20 37 44 66 47 58 51 69 66 186 5 41
16 95 24 119 23 63 19 181 -5 181 -4 0 -27 -36 -50 -81 -23 -44 -52 -87 -65
-96 -26 -17 -84 -105 -84 -128 0 -27 -17 -15 -24 16 -16 81 -6 152 32 237 47
104 65 126 95 116 34 -12 71 -7 82 10 25 40 41 17 83 -116z m2502 69 c0 -5 -4
-5 -10 -2 -5 3 -10 14 -10 23 0 15 2 15 10 2 5 -8 10 -19 10 -23z m1437 1 c-3
-8 -6 -5 -6 6 -1 11 2 17 5 13 3 -3 4 -12 1 -19z m-1404 -102 c-8 -57 -13 -58
-13 -3 0 25 -3 54 -6 64 -5 17 -4 17 10 -1 11 -14 14 -31 9 -60z m-1191 24 c2
-8 7 -18 13 -22 5 -4 0 -6 -13 -5 -18 1 -22 7 -22 37 1 25 3 31 10 20 5 -9 10
-22 12 -30z m1646 23 c-23 -49 -33 -63 -45 -63 -7 0 -13 -4 -13 -10 0 -12 -40
-34 -48 -26 -3 3 19 28 49 56 54 50 63 57 57 43z m277 -53 c4 -6 22 -17 42
-25 28 -12 34 -19 28 -32 -4 -10 -9 -31 -10 -46 -2 -16 -5 -30 -7 -31 -1 -1
-16 -12 -32 -24 -38 -29 -83 -28 -129 3 -29 20 -37 33 -38 58 -2 49 1 60 22
82 16 16 23 18 38 8 15 -9 23 -9 37 2 23 17 40 19 49 5z m-748 -82 c-3 -8 -6
-5 -6 6 -1 11 2 17 5 13 3 -3 4 -12 1 -19z m-1331 -14 c19 -15 34 -35 34 -46
0 -24 -33 -90 -54 -107 -33 -28 -128 7 -145 52 -23 62 -23 66 8 97 40 41 106
42 157 4z m2711 4 c-3 -8 -6 -5 -6 6 -1 11 2 17 5 13 3 -3 4 -12 1 -19z
m-1390 -30 c-3 -8 -6 -5 -6 6 -1 11 2 17 5 13 3 -3 4 -12 1 -19z m-10 -50 c-3
-8 -6 -5 -6 6 -1 11 2 17 5 13 3 -3 4 -12 1 -19z m223 8 c0 -2 -8 -10 -17 -17
-16 -13 -17 -12 -4 4 13 16 21 21 21 13z m-330 -62 c185 -37 321 -113 471
-263 107 -108 161 -187 207 -301 98 -246 89 -537 -24 -763 -107 -214 -277
-379 -478 -462 -310 -128 -642 -94 -925 96 -74 50 -141 107 -141 119 0 3 138
4 308 3 169 -2 352 0 407 4 l100 8 -4 45 c-2 25 -16 80 -32 122 -16 43 -42
114 -59 158 -34 93 -63 208 -54 221 3 5 20 9 39 9 18 0 40 7 49 15 14 15 46
11 46 -6 0 -5 29 -9 65 -9 62 0 67 -2 83 -29 9 -17 33 -36 55 -45 33 -13 38
-19 35 -43 -2 -22 -8 -27 -23 -25 -11 2 -48 6 -83 9 -80 7 -92 -3 -92 -72 0
-47 4 -57 41 -99 34 -38 40 -51 34 -75 -6 -28 -55 -81 -75 -81 -5 0 -10 -11
-10 -25 0 -18 8 -28 28 -36 15 -6 35 -15 44 -20 29 -15 81 -10 114 10 29 18
31 23 31 79 1 75 7 86 36 68 33 -21 94 -29 100 -14 2 7 7 10 11 7 11 -11 -25
-76 -48 -87 -12 -5 -28 -22 -36 -37 -14 -26 -13 -29 4 -39 11 -6 30 -21 43
-33 28 -27 74 -33 53 -8 -17 20 -7 29 21 20 16 -6 18 -9 8 -16 -28 -17 0 -19
35 -2 42 20 51 43 41 110 -4 27 -8 78 -8 115 -2 50 -5 64 -14 57 -18 -16 -88
-7 -88 11 0 10 10 15 30 16 17 0 38 4 48 8 10 5 23 4 31 -3 18 -15 38 9 70 81
16 35 33 59 46 63 25 8 50 59 43 86 -4 14 -11 17 -29 13 -32 -8 -31 10 1 56
l25 37 -21 51 c-12 29 -25 52 -29 52 -4 0 -20 -11 -36 -25 -16 -14 -32 -25
-35 -25 -8 0 9 76 27 118 8 18 14 39 14 47 0 8 3 15 7 15 13 0 43 -34 43 -49
0 -29 58 -81 91 -81 23 0 29 4 29 21 0 12 -8 23 -20 26 -17 4 -20 14 -20 57 0
75 -34 140 -76 144 -25 2 -33 9 -41 36 -11 36 -6 99 8 90 11 -7 11 -4 0 32 -5
16 -12 41 -15 57 -9 38 -31 34 -49 -10 -26 -67 -29 -110 -12 -143 9 -17 15
-48 13 -68 l-3 -37 -40 53 c-41 54 -98 99 -145 112 -28 8 -118 -8 -155 -28
-11 -5 -32 -15 -47 -21 -20 -7 -26 -15 -21 -27 5 -14 3 -15 -17 -4 -18 10 -25
9 -38 -3 -15 -16 -13 -27 14 -65 10 -13 12 -22 7 -20 -22 6 -17 -41 5 -49 41
-14 71 -63 39 -63 -24 0 -90 39 -121 72 -17 18 -47 45 -66 59 l-35 27 23 24
c17 19 22 36 22 75 0 49 -1 52 -27 55 -26 3 -28 7 -31 52 -2 26 4 69 12 94 25
73 22 88 -21 96 -21 3 -64 6 -96 6 -70 0 -78 -12 -48 -71 12 -23 25 -70 28
-104 l6 -63 -43 -7 c-65 -11 -72 4 -64 135 4 58 13 120 20 139 18 44 18 77 -2
85 -20 8 -95 8 -173 0 -55 -6 -61 -9 -61 -30 0 -13 8 -45 18 -71 12 -32 19
-82 21 -149 l3 -101 -40 -7 c-66 -10 -75 -2 -69 63 2 31 14 75 26 96 35 65 30
75 -36 76 -32 1 -69 4 -83 8 l-25 7 30 19 c17 10 49 30 72 44 23 14 62 38 86
53 39 24 216 73 332 91 48 8 203 -3 285 -19z m270 13 c0 -2 -12 -14 -27 -28
l-28 -24 24 28 c23 25 31 32 31 24z m-930 -74 c0 -19 -13 -9 -16 12 -1 8 2 13
7 9 5 -3 9 -12 9 -21z m1686 -21 l-29 -27 23 32 c13 18 26 30 29 28 3 -3 -8
-18 -23 -33z m-2358 -111 c2 -6 -1 -11 -7 -11 -6 0 -11 4 -11 9 0 5 -8 11 -17
14 -10 2 -27 8 -38 12 -15 5 -14 1 8 -19 15 -14 25 -26 21 -26 -5 0 5 -15 22
-33 16 -18 11 -14 -11 8 -23 22 -51 54 -63 71 l-22 32 57 -24 c32 -12 59 -28
61 -33z m-889 -83 c1 -31 -3 -60 -9 -63 -6 -4 -10 24 -9 77 1 94 17 82 18 -14z
m1164 25 c-7 -2 -21 -2 -30 0 -10 3 -4 5 12 5 17 0 24 -2 18 -5z m233 -38 c7
-22 13 -63 13 -91 1 -47 -1 -51 -31 -65 -29 -13 -32 -18 -31 -61 1 -38 9 -60
46 -115 24 -38 52 -74 61 -82 13 -11 16 -35 16 -131 0 -175 -48 -387 -113
-502 -23 -41 -43 -105 -49 -157 -2 -14 -8 -26 -14 -28 -11 -4 -93 116 -133
194 -51 100 -91 272 -91 391 0 74 25 237 46 307 43 135 212 391 253 383 9 -2
21 -21 27 -43z m-420 -67 c55 -59 125 -118 140 -118 9 0 14 -7 12 -17 -2 -10
-8 -18 -13 -18 -6 0 -56 47 -110 104 -55 57 -91 99 -80 94 11 -6 34 -26 51
-45z m1989 -44 c-39 -30 -53 -34 -58 -19 -4 9 -1 12 8 9 8 -3 24 1 37 10 29
20 39 20 13 0z m-81 -2 c2 -4 1 -14 -4 -21 -6 -11 -10 -9 -19 8 -10 17 -9 21
3 21 8 0 17 -4 20 -8z m-1738 -59 c-10 -10 -19 5 -10 18 6 11 8 11 12 0 2 -7
1 -15 -2 -18z m-1722 -94 c43 -39 56 -58 56 -79 0 -16 -4 -32 -10 -35 -5 -3
-19 -36 -31 -73 -18 -56 -22 -100 -26 -269 -3 -112 -8 -203 -10 -203 -2 0 -14
5 -26 11 -19 10 -18 7 6 -18 18 -20 27 -40 27 -63 0 -44 23 -163 61 -314 28
-110 33 -160 10 -105 -57 139 -74 192 -121 386 -10 44 -28 107 -39 140 -38
113 -51 287 -30 426 24 166 47 247 69 247 5 0 34 -23 64 -51z m5296 32 c5 -11
20 -60 32 -108 19 -75 22 -114 21 -263 -1 -96 -6 -195 -12 -220 -65 -280 -120
-468 -130 -451 -4 5 -6 -8 -6 -29 0 -38 -18 -70 -31 -57 -6 6 25 216 43 295 3
13 17 28 32 35 l26 11 -29 4 c-26 3 -28 6 -21 35 4 18 6 39 5 47 0 8 -1 58 0
110 2 224 -28 435 -66 466 -8 6 -14 16 -14 22 0 11 120 122 132 122 4 0 12 -9
18 -19z m-2365 -11 c3 -5 1 -10 -4 -10 -6 0 -11 5 -11 10 0 6 2 10 4 10 3 0 8
-4 11 -10z m42 -6 c-3 -3 -12 -4 -19 -1 -8 3 -5 6 6 6 11 1 17 -2 13 -5z m-93
-40 c28 -11 18 -27 -11 -19 -37 9 -53 25 -26 25 12 0 28 -3 37 -6z m1116 -44
c0 -5 -2 -10 -4 -10 -2 0 -12 -3 -22 -7 -11 -4 -15 -3 -10 5 4 7 -6 12 -26 15
-26 3 -22 4 15 5 26 1 47 -2 47 -8z m-1056 -16 c3 -9 3 -20 0 -25 -8 -13 -34
9 -34 27 0 19 26 18 34 -2z m1477 -17 c-8 -8 -11 -7 -11 4 0 9 3 19 7 23 4 4
9 2 11 -4 3 -7 -1 -17 -7 -23z m702 19 c8 -20 -11 -94 -32 -124 -10 -15 -26
-39 -35 -54 -9 -16 -20 -28 -24 -28 -5 0 -14 28 -21 63 -20 99 -20 102 14 105
16 2 39 15 52 28 25 27 38 30 46 10z m-4913 -4 c0 -13 -12 -22 -22 -16 -10 6
-1 24 13 24 5 0 9 -4 9 -8z m3098 -4 c10 -10 15 -10 22 2 8 13 10 13 10 -2 0
-26 -16 -30 -41 -8 -13 11 -19 19 -13 20 5 0 16 -6 22 -12z m59 -20 c-3 -8 -6
-5 -6 6 -1 11 2 17 5 13 3 -3 4 -12 1 -19z m583 18 c0 -2 -7 -7 -16 -10 -8 -3
-12 -2 -9 4 6 10 25 14 25 6z m-2799 -33 c13 -16 12 -17 -3 -4 -10 7 -18 15
-18 17 0 8 8 3 21 -13z m1864 -23 c-3 -5 -11 -10 -16 -10 -6 0 -7 5 -4 10 3 6
11 10 16 10 6 0 7 -4 4 -10z m-385 -76 c27 -14 62 -24 87 -24 45 0 73 -19 73
-51 0 -11 -7 -22 -15 -26 -21 -8 -141 32 -187 63 -41 26 -46 45 -26 90 l13 28
5 -28 c4 -21 17 -34 50 -52z m1105 26 c-3 -5 -12 -10 -18 -10 -7 0 -6 4 3 10
19 12 23 12 15 0z m369 -25 c3 -8 16 -20 29 -26 21 -10 23 -15 17 -44 -4 -19
-18 -50 -30 -69 -18 -31 -27 -36 -58 -36 -21 0 -53 8 -72 19 -30 15 -36 25
-41 62 -4 24 -3 51 2 60 12 23 65 42 130 48 9 0 19 -6 23 -14z m322 -22 c-3
-21 -5 -44 -6 -50 0 -7 -5 -13 -11 -13 -7 0 -9 10 -4 28 4 15 7 37 7 50 -1 12
3 22 9 22 7 0 9 -14 5 -37z m-1199 -53 c-1 -33 -5 -60 -10 -60 -5 0 -15 -7
-24 -15 -23 -23 -8 -57 37 -85 22 -13 40 -30 40 -37 0 -17 -11 -16 -37 2 -38
27 -65 -2 -47 -50 4 -8 22 -22 40 -30 19 -8 34 -20 34 -28 0 -8 -17 -33 -37
-56 -51 -57 -70 -50 -76 27 -2 31 -10 72 -18 90 -10 25 -11 37 -2 51 6 10 14
43 18 74 4 32 11 57 16 57 4 0 13 19 20 43 9 35 34 77 45 77 2 0 2 -27 1 -60z
m-2463 -69 c-4 -9 -6 -53 -5 -98 l3 -82 -32 9 c-34 10 -100 50 -100 61 0 3 15
26 34 50 18 24 48 71 67 104 l34 60 3 -44 c2 -24 0 -51 -4 -60z m3726 58 c0
-6 21 -43 47 -82 27 -40 50 -76 52 -80 2 -5 -11 -23 -28 -41 -25 -26 -38 -32
-61 -28 l-30 4 1 124 c0 75 4 122 10 119 5 -4 9 -11 9 -16z m-3254 -36 c41
-33 43 -57 9 -107 -14 -20 -25 -41 -25 -46 0 -26 -109 2 -137 35 -23 26 -30
78 -15 102 11 17 72 42 105 43 16 0 43 -12 63 -27z m1448 -1 c3 -5 -4 -19 -15
-31 -24 -26 -65 -22 -87 7 -11 15 -10 18 15 22 50 10 82 10 87 2z m1745 -29
c-1 -16 -5 -41 -9 -58 -6 -23 -7 -17 -7 28 1 31 5 57 9 57 4 0 7 -12 7 -27z
m-1079 -2 c0 -11 -9 -22 -19 -26 -11 -3 -29 -20 -40 -38 -11 -18 -21 -25 -21
-17 0 8 -3 26 -7 39 -5 19 -3 23 9 18 10 -3 25 4 39 19 27 29 39 31 39 5z
m-633 -17 c-3 -3 -12 -4 -19 -1 -8 3 -5 6 6 6 11 1 17 -2 13 -5z m1705 -138
c-5 -71 -17 -74 -16 -3 1 63 2 69 12 64 4 -3 5 -30 4 -61z m-3772 22 c29 -21
30 -25 28 -89 -3 -59 -5 -66 -20 -58 -32 17 -33 9 0 -17 35 -28 40 -57 21
-113 -8 -23 -17 -31 -35 -31 -30 0 -104 65 -104 91 0 17 -3 17 -20 7 -19 -12
-19 -13 2 -35 21 -22 21 -23 4 -77 -26 -82 -36 -86 -96 -36 -31 26 -50 36 -50
27 0 -8 -14 -34 -32 -58 l-32 -44 -19 43 c-17 41 -39 179 -30 194 2 5 27 -18
54 -50 54 -61 69 -72 69 -49 0 17 39 107 46 107 3 0 14 -5 25 -10 27 -15 24
-6 -11 28 -35 36 -37 45 -10 72 55 55 116 24 106 -54 l-6 -41 15 33 c13 27 20
32 38 27 19 -6 18 -3 -8 19 -16 14 -33 25 -36 26 -4 0 -10 8 -13 17 -5 11 5
29 31 55 20 21 41 38 45 38 5 0 22 -10 38 -22z m4004 -18 c20 -22 40 -40 46
-40 5 0 34 -12 62 -27 29 -16 54 -29 56 -29 8 -4 -37 -64 -66 -89 -48 -40 -60
-29 -65 57 l-3 73 -2 -90 c-1 -49 -6 -95 -10 -101 -4 -6 -25 -22 -46 -37 -46
-30 -56 -26 -90 37 l-19 36 24 26 c13 15 43 35 67 46 24 11 41 22 39 25 -3 2
-15 0 -26 -7 -12 -6 -26 -8 -32 -4 -6 3 -30 -12 -53 -35 l-43 -42 36 -69 36
-69 -25 -26 c-15 -16 -18 -24 -9 -20 12 5 21 -8 37 -53 12 -32 22 -66 22 -75
0 -19 -54 -52 -99 -61 l-34 -6 6 72 c5 58 10 76 27 87 11 7 20 18 20 24 0 7
-4 7 -12 -1 -7 -7 -15 -12 -20 -12 -4 0 -7 86 -7 190 l0 190 22 0 c13 0 28 -5
35 -12 9 -9 12 -8 12 5 0 9 4 17 9 17 6 0 18 14 28 30 9 17 23 30 29 30 6 0
28 -18 48 -40z m-1314 -1 c0 -22 -4 -30 -14 -26 -7 3 -18 1 -24 -5 -13 -13
-32 -2 -32 18 0 8 10 14 25 14 16 0 25 6 25 15 0 8 5 15 10 15 6 0 10 -14 10
-31z m650 6 c23 -15 53 -33 78 -46 12 -7 22 -16 22 -21 0 -15 -57 -8 -71 8
-19 23 -60 37 -73 24 -5 -5 -13 -10 -16 -10 -7 0 -10 28 -5 45 4 14 45 13 65
0z m-3222 -117 c2 -43 -1 -78 -5 -78 -4 0 -23 9 -40 20 -28 17 -33 26 -33 57
0 69 9 84 44 81 l31 -3 3 -77z m2102 25 c0 -14 -3 -23 -7 -20 -3 4 -12 2 -20
-4 -20 -17 -17 7 5 30 22 25 22 25 22 -6z m-1527 -3 c-6 -21 -25 -28 -20 -7 2
10 16 26 24 27 0 0 -1 -9 -4 -20z m3076 -27 c-1 -41 -2 -44 -8 -18 -7 28 -4
65 5 65 2 0 3 -21 3 -47z m-1602 7 c0 -16 7 -38 16 -48 31 -34 18 -55 -17 -29
-24 18 -36 107 -14 107 10 0 15 -10 15 -30z m1063 5 c-7 -8 -17 -15 -23 -15
-6 0 -2 7 9 15 25 19 30 19 14 0z m-2573 -12 c5 -15 -24 -25 -77 -28 l-45 -2
50 23 c52 23 66 25 72 7z m-902 -25 c12 -29 11 -37 -6 -70 -11 -21 -21 -38
-23 -38 -7 0 -106 103 -106 111 0 14 40 28 83 28 34 1 40 -3 52 -31z m4524 26
c17 -4 31 -12 31 -18 0 -14 -90 -116 -102 -116 -5 0 -14 14 -20 31 -15 44 -19
31 -9 -32 9 -51 8 -56 -17 -82 -31 -33 -79 -61 -85 -49 -14 22 -33 110 -28
125 7 18 87 87 102 87 5 0 15 14 24 30 16 32 39 37 104 24z m-4181 -90 c20
-14 22 -23 22 -105 0 -49 -2 -89 -4 -89 -2 0 -24 11 -48 25 l-45 25 -17 -43
c-9 -23 -16 -52 -16 -64 0 -35 -15 -35 -81 -3 -34 16 -63 30 -65 30 -1 0 -7
-20 -13 -44 -16 -65 -32 -73 -84 -43 -24 14 -49 33 -56 41 -18 21 -6 64 28
105 l28 34 48 -33 48 -33 18 21 c9 12 20 40 24 63 4 22 13 43 20 45 7 3 31 -6
54 -20 22 -14 44 -26 49 -26 16 0 42 59 42 94 0 40 12 45 48 20z m4192 -141
c-5 -31 -14 -61 -19 -66 -9 -9 -56 64 -66 106 -6 22 0 33 42 71 l48 45 3 -49
c2 -28 -2 -76 -8 -107z m-1930 117 c0 -5 -2 -10 -4 -10 -3 0 -8 5 -11 10 -3 6
-1 10 4 10 6 0 11 -4 11 -10z m165 -40 c3 -5 -1 -10 -9 -10 -9 0 -16 5 -16 10
0 6 4 10 9 10 6 0 13 -4 16 -10z m1523 -73 c22 -69 22 -107 0 -107 -5 0 -21
-9 -35 -20 -44 -34 -59 -26 -81 40 -11 32 -18 69 -15 80 5 18 85 80 103 80 3
0 15 -33 28 -73z m-1508 43 c0 -5 -7 -10 -16 -10 -8 0 -12 5 -9 10 3 6 10 10
16 10 5 0 9 -4 9 -10z m10 -45 c0 -8 -4 -17 -10 -20 -5 -3 -10 -2 -10 4 0 5
-3 17 -6 25 -5 12 -2 15 10 10 9 -3 16 -12 16 -19z m1669 -40 c33 -62 28 -88
-23 -129 -23 -20 -48 -36 -54 -36 -15 0 -52 86 -52 121 0 21 7 32 28 43 15 8
36 24 46 35 22 24 26 22 55 -34z m-4129 -22 c26 -24 31 -38 36 -97 l7 -69 -41
5 c-23 3 -55 16 -72 28 -29 20 -31 26 -25 59 11 56 32 101 49 101 9 0 29 -12
46 -27z m2116 -31 c-4 -3 -14 2 -24 12 -16 18 -16 18 6 6 13 -6 21 -14 18 -18z
m42 10 c6 -18 -15 -14 -22 4 -4 10 -1 14 6 12 6 -2 14 -10 16 -16z m-1374 -16
c-3 -9 -12 -16 -20 -16 -8 0 -14 -5 -14 -12 0 -6 -3 -8 -7 -5 -3 4 4 18 17 32
25 27 34 27 24 1z m1658 -28 c-6 -6 -12 -6 -16 1 -4 6 -2 11 3 11 6 0 12 10
12 23 2 22 2 22 6 -2 3 -13 0 -28 -5 -33z m-2615 -10 c61 -34 65 -43 40 -95
-18 -38 -25 -43 -45 -38 -29 7 -104 56 -100 64 30 65 45 91 55 91 6 0 29 -10
50 -22z m4175 -22 c11 -24 18 -51 15 -59 -3 -9 -25 -26 -49 -38 -23 -12 -63
-43 -88 -69 -25 -26 -60 -56 -77 -66 -18 -10 -33 -22 -33 -26 0 -23 -43 -48
-80 -48 -39 0 -40 1 -34 28 4 15 13 41 20 59 8 17 16 51 19 74 5 44 19 68 31
56 4 -4 9 -33 11 -64 2 -32 9 -62 15 -68 7 -7 8 12 3 60 l-7 70 57 29 c31 15
59 35 62 42 3 8 9 14 14 14 4 0 25 11 45 25 20 14 41 25 46 25 4 0 18 -20 30
-44z m-1532 30 c0 -2 -8 -10 -17 -17 -16 -13 -17 -12 -4 4 13 16 21 21 21 13z
m-2812 -68 c29 -22 50 -43 47 -48 -3 -4 4 -6 14 -3 11 3 44 -10 80 -31 44 -25
61 -31 61 -21 0 29 33 95 47 95 8 0 34 -12 59 -26 24 -14 51 -24 59 -20 11 4
20 -14 39 -72 13 -42 27 -92 31 -109 l7 -33 -46 0 c-60 0 -73 23 -59 104 6 31
7 56 3 56 -4 0 -11 -20 -14 -44 l-7 -45 -29 13 c-16 6 -41 22 -55 34 -30 27
-35 27 -35 5 0 -19 -46 -123 -54 -123 -3 0 -25 14 -49 30 -54 36 -57 36 -57 6
0 -19 4 -22 23 -19 34 7 93 -38 89 -68 -4 -37 -35 -94 -53 -97 -19 -3 -85 120
-74 139 5 7 4 10 -2 6 -14 -9 -30 11 -39 48 -4 17 -13 43 -21 58 -16 32 -53
198 -46 210 5 9 12 5 81 -45z m4512 18 c0 -40 -39 -152 -59 -170 -18 -16 -19
-15 -31 33 -7 28 -16 54 -21 57 -11 7 -12 44 -1 44 5 0 29 13 53 30 53 36 59
37 59 6z m-3170 -26 c0 -5 -12 -10 -27 -9 -25 0 -26 1 -8 9 27 12 35 12 35 0z
m-215 -30 c-4 -6 -4 -18 -1 -26 5 -13 10 -13 43 1 36 15 36 15 18 -5 -14 -16
-99 -70 -110 -70 -2 0 -5 11 -7 24 -5 23 -2 24 29 20 31 -4 48 11 19 18 -10 2
-11 9 -5 26 5 12 11 22 14 22 4 0 3 -5 0 -10z m3632 -36 c-6 -20 -13 -32 -14
-27 -4 11 14 63 21 63 2 0 -1 -16 -7 -36z m-363 -17 c9 -23 16 -48 16 -54 0
-7 10 -19 22 -27 17 -12 20 -18 10 -28 -7 -7 -12 -20 -12 -29 0 -9 -7 -22 -15
-29 -9 -7 -20 -31 -26 -54 -6 -23 -23 -59 -39 -81 -16 -22 -51 -73 -77 -113
-62 -94 -195 -246 -243 -278 -21 -14 -40 -34 -43 -45 -3 -10 -16 -23 -30 -28
-14 -5 -28 -15 -32 -21 -15 -25 -139 -110 -148 -101 -5 5 -5 30 -2 55 9 61 36
79 104 74 27 -1 48 -1 45 1 -2 2 0 9 6 16 7 8 -8 10 -57 7 l-66 -5 6 63 c3 36
11 67 19 71 7 5 38 8 68 7 l55 -3 0 -52 c0 -29 3 -53 8 -53 29 0 32 1 18 9
-10 6 -12 27 -9 82 3 41 6 79 8 84 1 6 2 42 1 80 -1 53 -4 66 -12 53 -6 -12
-22 -18 -44 -18 -19 0 -35 -4 -35 -10 0 -5 15 -10 34 -10 32 0 35 -3 40 -37
10 -62 -5 -96 -45 -106 -40 -9 -86 4 -95 28 -9 21 2 56 29 96 12 19 30 53 39
75 9 23 28 58 42 79 14 21 26 45 26 54 0 32 24 49 77 53 l53 5 14 -46 14 -46
-5 66 -5 66 46 31 c26 18 50 32 54 32 4 0 20 -25 35 -56 33 -67 30 -73 -62
-119 -33 -17 -60 -36 -61 -43 0 -7 -12 -17 -27 -23 -72 -28 -93 -39 -93 -49 0
-5 20 0 44 12 24 11 51 18 59 15 20 -8 33 -106 19 -146 -10 -29 0 -53 15 -37
7 7 5 129 -3 174 -8 40 3 53 75 94 31 17 72 47 91 65 19 18 41 33 48 33 15 0
72 53 72 68 0 5 -16 -5 -36 -23 -42 -39 -91 -62 -103 -49 -5 5 -20 30 -35 56
l-27 47 28 30 c35 39 93 79 114 80 10 1 22 -15 33 -42z m-4686 -97 c0 -8 -6
-1 -13 15 -8 17 -14 39 -14 50 0 13 5 8 14 -15 7 -19 13 -42 13 -50z m559 -6
c52 -30 67 -60 51 -106 -18 -55 -29 -62 -74 -43 -62 25 -76 44 -69 84 7 38 32
91 42 91 3 0 26 -12 50 -26z m3091 -54 c22 -14 32 -27 32 -44 0 -34 -15 -71
-40 -96 -45 -45 -152 -10 -163 53 -3 17 -8 40 -12 49 -5 13 2 23 27 38 43 26
112 26 156 0z m-2112 -45 c31 -24 32 -26 20 -62 -6 -21 -20 -51 -30 -67 -18
-26 -24 -28 -68 -24 -69 7 -98 36 -98 99 0 42 3 50 28 63 44 24 110 20 148 -9z
m-781 -35 c6 -19 28 -62 49 -94 43 -71 45 -86 10 -86 -47 0 -64 17 -64 63 0
28 -3 37 -9 28 -7 -10 -23 -13 -63 -8 -29 3 -62 8 -73 12 -19 6 -19 6 -1 -9
10 -8 39 -18 63 -22 57 -8 80 -41 75 -108 l-4 -46 -42 -1 -41 -1 35 -10 c19
-5 41 -14 48 -20 9 -8 12 0 12 38 0 27 4 54 8 60 4 6 26 11 49 13 39 2 44 -1
68 -39 14 -23 41 -61 60 -86 41 -54 43 -64 11 -64 -16 0 -27 7 -31 20 -5 15
-15 20 -43 20 -21 0 -52 4 -70 9 -17 5 -32 6 -32 1 0 -11 18 -17 74 -25 29 -5
52 -15 61 -27 11 -16 20 -19 47 -14 32 6 36 3 78 -55 42 -56 134 -151 205
-212 17 -14 28 -28 25 -30 -8 -8 -115 -11 -127 -4 -7 4 -15 31 -18 60 -10 79
-27 94 -106 99 -64 4 -65 3 -55 -18 6 -13 13 -18 17 -13 3 6 30 9 60 7 l54 -3
10 -60 c6 -33 22 -84 38 -113 29 -58 33 -72 17 -72 -15 0 -159 101 -178 125
-10 12 -29 26 -42 30 -25 8 -104 70 -247 195 -74 64 -102 102 -104 137 0 10
-3 13 -6 6 -7 -19 -26 -15 -44 10 -60 83 -84 128 -61 113 4 -2 14 -1 22 5 11
6 8 9 -12 9 -18 0 -33 9 -47 29 -20 27 -20 31 -5 77 26 77 34 81 89 50 56 -31
73 -32 83 -8 4 9 16 31 26 47 18 29 21 30 68 25 46 -5 51 -8 63 -40z m2570
-27 c14 -21 25 -49 24 -63 -1 -24 -1 -24 -11 5 -6 17 -19 42 -29 57 -11 14
-19 29 -19 32 0 14 11 4 35 -31z m-1592 -29 c-5 -13 -2 -15 13 -10 16 5 20 1
22 -19 1 -13 -3 -27 -8 -30 -6 -3 -7 2 -4 12 3 11 0 9 -8 -5 -8 -12 -17 -20
-20 -16 -4 3 -5 -2 -2 -13 3 -11 -3 -23 -16 -31 -17 -11 -20 -10 -20 7 0 10 6
34 14 52 7 19 16 42 19 52 4 9 9 17 11 17 3 0 3 -7 -1 -16z m935 -84 c-2 -7
-10 1 -17 16 -12 27 -11 28 4 12 10 -9 16 -21 13 -28z m-517 -33 c-1 -12 -15
-9 -19 4 -3 6 1 10 8 8 6 -3 11 -8 11 -12z m-1980 -81 c14 -17 36 -47 49 -66
14 -19 97 -109 185 -200 216 -221 325 -336 343 -362 15 -21 14 -21 -18 -15
-18 4 -48 18 -65 32 -18 13 -86 54 -151 90 -158 88 -156 86 -114 130 29 30 32
37 20 45 -8 5 -19 10 -25 11 -5 0 -20 2 -32 5 -27 5 -27 4 -11 -31 9 -19 9
-28 0 -37 -17 -17 -60 27 -95 96 l-28 55 27 46 c29 50 26 64 -8 48 -51 -23
-83 16 -122 148 -16 54 -11 87 8 54 6 -10 23 -32 37 -49z m2597 -35 c7 -14 11
-30 8 -36 -2 -7 0 -18 6 -26 8 -11 9 -11 4 3 -3 10 -1 20 4 23 6 4 10 -13 10
-40 0 -28 -4 -44 -10 -40 -5 3 -10 12 -10 18 0 7 -6 24 -14 39 -11 20 -11 28
-3 32 9 5 9 8 0 12 -7 3 -13 14 -13 25 0 10 -4 19 -10 19 -5 0 -7 -8 -3 -17
12 -35 -16 1 -33 42 l-16 39 33 -34 c18 -19 39 -46 47 -59z m2102 -6 c-7 -22
-23 -61 -36 -87 -22 -43 -28 -48 -59 -48 -21 0 -35 5 -36 13 0 9 -2 9 -6 -1
-3 -7 3 -22 13 -33 26 -29 21 -68 -17 -134 -39 -67 -65 -81 -75 -41 -4 17 -15
28 -31 32 -49 13 -54 -31 -7 -56 44 -24 30 -39 -109 -116 -56 -31 -122 -70
-147 -85 -25 -15 -63 -35 -84 -44 l-38 -16 48 62 c27 35 136 153 243 264 106
110 220 234 253 275 101 127 92 120 96 85 2 -16 -2 -48 -8 -70z m-2566 38 c-8
-57 -30 -113 -44 -113 -12 0 -1 53 12 58 4 2 8 11 8 20 0 17 22 82 28 82 2 0
0 -21 -4 -47z m1805 -104 c-19 -14 -22 -25 -20 -78 2 -71 -11 -102 -42 -100
-12 1 -44 1 -70 1 -46 -2 -49 -4 -67 -44 -11 -24 -19 -59 -19 -78 0 -30 3 -25
22 35 l23 70 63 3 63 3 -7 -43 c-11 -64 -22 -87 -47 -99 -13 -5 -30 -22 -39
-38 -10 -17 -46 -43 -100 -70 -46 -24 -102 -56 -124 -72 -22 -16 -56 -36 -75
-45 -19 -9 -42 -20 -50 -25 -8 -5 -38 -20 -67 -34 -28 -14 -55 -30 -59 -36 -4
-7 -44 -29 -90 -50 -46 -21 -103 -53 -127 -72 -24 -18 -84 -53 -133 -76 -49
-24 -100 -53 -114 -66 -25 -22 -135 -89 -157 -96 -17 -5 -119 -95 -212 -186
-41 -40 -77 -73 -82 -73 -4 0 -10 -13 -14 -29 -3 -16 -13 -35 -21 -42 -8 -6
-14 -17 -14 -24 0 -6 -9 -20 -20 -30 -19 -17 -20 -17 -27 1 -24 66 -104 161
-218 262 -99 87 -121 104 -205 154 -107 63 -152 97 -145 109 4 5 1 9 -4 9 -6
0 -11 12 -11 27 l0 27 -16 -22 c-20 -28 -35 -28 -92 5 -139 78 -172 109 -172
163 0 11 -4 20 -8 20 -4 0 -6 -16 -4 -36 l4 -35 -36 15 c-20 8 -51 26 -68 39
-18 14 -87 53 -153 87 -66 34 -129 71 -140 82 l-20 20 34 -6 c18 -3 55 -6 81
-6 46 0 47 -1 59 -40 7 -22 16 -38 21 -35 5 3 2 22 -6 41 -8 20 -13 38 -11 41
3 2 -9 17 -25 34 -34 33 -46 33 -28 -1 6 -12 10 -24 7 -26 -2 -3 -35 -2 -72 2
-61 6 -69 10 -86 38 -33 54 -27 64 44 68 43 3 65 0 73 -9 6 -7 20 -13 30 -13
10 0 41 -14 68 -31 44 -28 48 -33 33 -44 -25 -18 -21 -22 15 -17 20 3 46 -3
72 -16 23 -11 69 -30 104 -43 34 -12 65 -26 68 -30 3 -5 -7 -14 -23 -20 -42
-17 -8 -24 39 -8 50 16 71 5 79 -42 4 -22 7 -26 8 -11 2 35 45 28 145 -22 48
-24 100 -47 114 -51 46 -11 166 -66 199 -91 17 -13 37 -24 43 -24 23 0 150
-95 150 -112 0 -6 -17 -7 -41 -3 -29 5 -40 4 -35 -4 4 -6 26 -11 50 -11 55 0
75 -16 83 -65 3 -22 9 -42 12 -45 17 -14 65 -99 72 -125 7 -28 7 -27 8 11 1
27 -5 46 -15 55 -23 19 -45 67 -46 101 -1 25 11 42 63 92 36 33 84 72 108 84
l42 24 -6 -39 c-4 -21 -13 -43 -21 -49 -8 -6 -13 -24 -13 -40 1 -23 3 -24 6
-7 7 35 27 44 103 48 67 3 72 2 66 -16 -17 -54 -18 -64 -9 -54 6 6 16 27 23
48 6 20 15 37 19 37 4 0 13 17 20 37 8 21 27 58 42 84 16 25 29 51 29 56 0 14
200 105 216 99 8 -3 14 -2 14 3 0 5 72 39 161 77 88 37 177 81 197 97 21 16
65 45 100 64 56 31 69 35 118 31 30 -3 54 -1 54 4 0 4 -22 8 -50 8 -27 0 -50
4 -50 9 0 4 44 51 98 103 116 113 189 194 197 217 3 10 15 28 26 40 20 21 22
22 41 5 19 -18 19 -18 -3 -35z m-1530 -9 c46 -39 53 -92 17 -116 -14 -8 -28
-25 -32 -36 -5 -17 -12 -19 -41 -15 -20 4 -53 18 -74 32 -34 22 -39 30 -39 65
0 26 7 48 23 66 21 24 25 25 45 13 19 -12 24 -11 39 4 22 22 21 22 62 -13z
m1196 11 c-3 -6 -11 -11 -16 -11 -5 0 -4 6 3 14 14 16 24 13 13 -3z m-1525
-36 c-7 -8 -21 -15 -31 -15 -21 0 -26 -16 -6 -23 7 -3 4 -6 -6 -6 -14 -1 -18
5 -15 22 2 16 9 21 26 20 12 -2 22 2 22 7 0 6 5 10 11 10 8 0 8 -5 -1 -15z
m1490 -5 c0 -5 -5 -10 -11 -10 -5 0 -7 5 -4 10 3 6 8 10 11 10 2 0 4 -4 4 -10z
m-3620 -250 c20 -12 4 -28 -38 -36 -25 -5 -32 -3 -32 9 0 16 25 36 45 37 6 0
17 -5 25 -10z m4815 -3 c33 -25 -5 -48 -49 -31 -31 12 -19 34 25 43 3 0 13 -5
24 -12z m-4083 -314 c15 -15 28 -37 28 -49 0 -13 5 -26 11 -30 6 -3 9 -19 7
-35 -3 -16 -1 -29 4 -29 15 0 8 -65 -10 -91 -22 -34 -99 -98 -136 -114 -69
-30 -219 54 -252 141 -17 44 -17 47 4 90 22 45 91 103 137 115 35 10 110 -9
131 -33 14 -14 19 -35 18 -73 0 -57 -11 -77 -58 -106 -28 -17 -31 -17 -68 2
-47 24 -49 50 -7 90 33 30 32 51 -1 42 -44 -12 -79 -110 -52 -149 10 -14 62
-33 92 -33 14 0 39 -3 56 -6 26 -6 37 -2 62 23 17 16 36 32 43 34 7 2 12 23
13 50 1 25 4 44 9 41 19 -12 3 20 -33 63 -57 69 -55 112 2 57z m3338 8 c0 -27
-38 -71 -55 -64 -21 7 -19 17 11 52 29 35 44 39 44 12z m193 -14 c65 -28 160
-162 134 -189 -7 -7 -18 -25 -24 -40 -16 -35 -83 -79 -163 -108 l-66 -23 -42
28 c-23 15 -42 30 -42 34 0 3 -16 24 -35 46 -43 49 -64 97 -47 103 7 2 12 19
12 37 0 19 6 35 14 38 11 4 19 -9 31 -49 20 -70 44 -113 75 -133 13 -9 21 -11
17 -4 -5 9 6 12 40 11 27 0 63 5 81 12 31 11 32 14 32 65 0 61 -29 108 -63
103 -32 -5 -31 -25 2 -43 49 -25 41 -77 -15 -95 -41 -14 -75 3 -98 48 -29 57
-29 87 -1 121 40 46 102 61 158 38z m-1988 -7 c3 -5 1 -10 -4 -10 -6 0 -11 5
-11 10 0 6 2 10 4 10 3 0 8 -4 11 -10z m230 -9 c-3 -6 -14 -11 -23 -11 -13 0
-13 2 4 14 21 15 30 14 19 -3z m-2355 -85 c0 -8 3 -21 6 -30 4 -12 0 -16 -15
-16 -21 0 -26 15 -15 44 8 20 24 21 24 2z m4486 3 c10 -17 -13 -36 -27 -22
-12 12 -4 33 11 33 5 0 12 -5 16 -11z m-1796 -21 c0 -7 -17 -47 -38 -88 l-37
-75 -50 -2 c-27 -2 -60 -4 -72 -6 -21 -4 -23 0 -23 39 l0 44 103 50 c111 54
117 56 117 38z m-2100 -12 c0 -3 -4 -8 -10 -11 -5 -3 -10 -1 -10 4 0 6 5 11
10 11 6 0 10 -2 10 -4z m757 -222 c177 -85 314 -194 411 -323 37 -49 5 -51
-76 -3 -37 22 -156 92 -264 156 -110 65 -199 124 -201 134 -30 109 -24 111
130 36z m1910 10 c-3 -20 -12 -46 -20 -58 -18 -27 -507 -316 -535 -316 -17 0
-16 3 18 53 80 119 191 209 356 290 127 62 136 66 163 66 22 1 23 -2 18 -35z
m-1598 -418 c43 -27 78 -77 87 -123 14 -69 -55 -140 -108 -113 -27 14 -83 71
-90 91 -3 8 -9 11 -13 7 -4 -4 3 -26 16 -50 26 -46 79 -82 137 -93 28 -5 38
-2 57 19 13 14 28 26 33 26 18 0 32 54 33 131 1 90 14 97 25 13 11 -88 -22
-204 -58 -204 -5 0 -22 -15 -38 -34 -36 -40 -73 -49 -143 -35 -73 16 -142 84
-152 150 -13 85 31 172 110 221 40 24 58 23 104 -6z m1260 -2 c64 -42 95 -95
99 -173 4 -62 2 -68 -30 -108 -45 -58 -66 -71 -129 -81 -64 -10 -114 1 -132
28 -6 11 -19 20 -27 20 -30 1 -53 48 -48 100 4 44 3 49 -16 52 -14 2 -22 11
-24 28 -3 29 16 63 24 43 3 -7 11 -10 19 -7 13 6 31 -47 21 -64 -2 -4 13 -27
35 -50 43 -48 45 -52 24 -52 -17 0 -20 -35 -4 -45 6 -4 20 1 32 11 12 11 43
30 70 43 26 13 61 42 77 64 51 70 33 75 -29 8 -65 -70 -85 -74 -128 -22 -52
61 -34 138 45 198 52 40 71 41 121 7z m-189 -33 c0 -22 -25 -45 -40 -36 -13 8
-13 28 2 43 18 18 38 14 38 -7z m-970 -22 c0 -11 -4 -17 -10 -14 -5 3 -10 13
-10 21 0 8 5 14 10 14 6 0 10 -9 10 -21z"/>
<path d="M4656 9434 c-35 -24 -37 -27 -22 -43 16 -15 18 -14 37 9 50 64 46 75
-15 34z"/>
<path d="M4751 9359 c-14 -11 -31 -17 -42 -14 -13 4 -19 1 -19 -9 0 -9 6 -16
13 -16 7 0 17 -14 22 -32 6 -17 16 -33 22 -36 9 -2 8 7 -3 33 -14 34 -14 38 3
51 10 7 21 14 24 14 4 0 9 7 13 15 7 20 -4 18 -33 -6z"/>
<path d="M4760 9233 c1 -23 17 -31 50 -24 36 8 31 14 -22 25 -16 4 -28 3 -28
-1z"/>
<path d="M4864 9072 c-6 -4 -17 -18 -24 -32 l-13 -25 29 25 c16 14 33 28 39
32 12 10 -16 10 -31 0z"/>
<path d="M4816 8995 c-9 -26 -7 -32 5 -12 6 10 9 21 6 23 -2 3 -7 -2 -11 -11z"/>
<path d="M4780 8794 c0 -5 64 -34 77 -34 4 0 -5 9 -22 20 -29 19 -55 26 -55
14z"/>
<path d="M4753 8617 c-66 -25 -46 -29 60 -12 26 4 50 11 53 16 8 13 -75 10
-113 -4z"/>
<path d="M4933 8583 c-14 -5 -18 -33 -5 -33 10 1 42 26 42 34 0 7 -19 7 -37
-1z"/>
<path d="M3618 9478 c-13 -25 -15 -43 -9 -73 l9 -40 2 35 c1 19 2 42 1 51 -1
9 5 22 14 29 16 13 20 30 7 30 -4 0 -15 -15 -24 -32z"/>
<path d="M3995 9590 c-32 -21 -50 -62 -60 -137 -5 -35 -4 -44 4 -33 6 8 11 22
11 30 0 8 25 42 55 74 41 46 52 63 43 73 -13 16 -16 16 -53 -7z"/>
<path d="M4195 9504 c-9 -9 -14 -18 -11 -21 6 -6 46 20 46 29 0 13 -18 9 -35
-8z"/>
<path d="M3806 9479 c-11 -56 -6 -96 13 -120 l20 -24 -11 45 c-5 25 -10 64 -9
88 1 50 -4 54 -13 11z"/>
<path d="M4108 9363 c-65 -67 -138 -184 -137 -217 l1 -31 11 25 c11 24 37 59
137 187 60 78 52 102 -12 36z"/>
<path d="M4200 9343 c-23 -20 -68 -74 -101 -120 -33 -45 -69 -88 -79 -93 -21
-11 -56 -77 -47 -87 4 -3 10 3 13 13 4 10 35 48 68 85 81 86 190 211 200 227
15 24 -15 11 -54 -25z"/>
<path d="M3752 9341 c7 -11 19 -22 28 -24 9 -2 30 -25 47 -51 18 -27 34 -42
38 -36 12 19 -83 130 -112 130 -11 0 -11 -4 -1 -19z"/>
<path d="M4375 9349 c-10 -15 3 -25 16 -12 7 7 7 13 1 17 -6 3 -14 1 -17 -5z"/>
<path d="M3716 9275 c26 -39 124 -91 124 -66 0 6 -8 11 -17 11 -10 0 -38 18
-63 40 -51 46 -68 51 -44 15z"/>
<path d="M4265 9268 c-40 -21 -285 -258 -285 -276 0 -18 72 26 95 59 39 52
181 167 253 203 17 9 32 21 32 26 0 17 -53 10 -95 -12z"/>
<path d="M4410 9145 c-24 -14 -24 -14 -3 -15 12 0 25 5 28 11 11 17 2 18 -25
4z"/>
<path d="M4416 9061 c-4 -7 -5 -15 -2 -18 9 -9 19 4 14 18 -4 11 -6 11 -12 0z"/>
<path d="M4190 8810 c-12 -23 -10 -24 24 -9 14 7 23 16 20 20 -9 16 -33 10
-44 -11z"/>
<path d="M4207 8736 c-4 -10 -1 -13 9 -9 15 6 19 23 5 23 -5 0 -11 -7 -14 -14z"/>
<path d="M4300 8673 c-18 -7 -50 -42 -50 -55 0 -6 13 1 29 14 15 12 37 28 47
35 14 9 15 12 4 12 -8 0 -22 -3 -30 -6z"/>
<path d="M3560 9191 c0 -5 5 -13 10 -16 6 -3 10 -2 10 4 0 5 -4 13 -10 16 -5
3 -10 2 -10 -4z"/>
<path d="M3503 9183 c-9 -3 -8 -11 4 -31 22 -35 105 -123 167 -175 47 -39 48
-40 33 -12 -8 17 -43 55 -77 85 -34 30 -73 74 -87 98 -14 23 -26 42 -26 41 -1
0 -8 -3 -14 -6z"/>
<path d="M5224 7597 c-9 -28 19 -47 68 -47 31 0 38 4 38 19 0 24 -12 32 -61
41 -33 6 -39 4 -45 -13z"/>
<path d="M3611 7384 c-1 -56 28 -223 45 -258 31 -63 3 -108 -77 -121 -28 -5
-55 -21 -91 -54 -42 -39 -51 -53 -53 -87 -5 -66 13 -135 42 -166 32 -33 40
-35 48 -8 3 11 18 23 33 26 32 8 88 57 108 96 14 28 19 104 8 132 -22 57 -168
-38 -205 -133 -17 -44 -21 -13 -5 41 17 59 48 95 99 114 17 7 50 19 71 27 39
15 63 48 49 70 -4 6 0 8 11 4 13 -5 15 -3 7 11 -9 17 -49 166 -75 282 -13 60
-14 62 -15 24z m41 -466 c12 -32 -6 -91 -37 -124 -28 -29 -40 -35 -67 -32 -29
3 -33 7 -36 35 -6 60 122 170 140 121z m-132 -173 c20 -24 4 -29 -19 -6 -14
14 -17 21 -7 21 7 0 19 -7 26 -15z"/>
<path d="M2797 6899 c7 -7 15 -10 18 -7 3 3 -2 9 -12 12 -14 6 -15 5 -6 -5z"/>
<path d="M5805 7261 c-11 -11 -40 -24 -65 -29 l-45 -10 43 -1 c44 -1 86 19 96
45 8 20 -6 18 -29 -5z"/>
<path d="M5482 7057 c-11 -11 -42 -25 -69 -33 l-48 -13 40 0 c25 0 49 7 65 19
14 11 33 20 42 20 24 0 31 17 9 23 -11 3 -27 -4 -39 -16z"/>
<path d="M2270 6986 c-6 -8 -10 -25 -8 -36 2 -17 5 -14 14 14 12 40 12 42 -6
22z"/>
<path d="M2125 6830 c-3 -5 1 -10 9 -10 9 0 16 5 16 10 0 6 -4 10 -9 10 -6 0
-13 -4 -16 -10z"/>
<path d="M4342 6220 c7 -10 14 -18 15 -16 6 6 -9 36 -18 36 -5 0 -4 -9 3 -20z"/>
<path d="M4862 5300 c0 -14 2 -19 5 -12 2 6 2 18 0 25 -3 6 -5 1 -5 -13z"/>
<path d="M6080 4616 c0 -9 5 -16 10 -16 6 0 10 4 10 9 0 6 -4 13 -10 16 -5 3
-10 -1 -10 -9z"/>
<path d="M4340 4550 c0 -5 5 -10 10 -10 6 0 10 5 10 10 0 6 -4 10 -10 10 -5 0
-10 -4 -10 -10z"/>
<path d="M6127 4143 c6 -16 43 -59 43 -50 0 2 -7 18 -16 35 -16 34 -38 45 -27
15z"/>
<path d="M1942 4065 c-26 -53 -26 -55 -9 -55 11 0 43 88 34 96 -2 2 -13 -17
-25 -41z"/>
<path d="M6208 3793 c15 -43 17 -45 20 -21 3 29 -13 68 -28 68 -5 0 -1 -21 8
-47z"/>
<path d="M5890 3761 c0 -28 5 -51 10 -51 6 0 10 20 10 44 0 25 -4 48 -10 51
-6 4 -10 -13 -10 -44z"/>
<path d="M2211 3685 c-5 -20 -6 -46 -2 -58 6 -16 9 -8 14 33 8 64 2 76 -12 25z"/>
<path d="M2248 3583 c7 -3 16 -2 19 1 4 3 -2 6 -13 5 -11 0 -14 -3 -6 -6z"/>
<path d="M2403 3484 c-3 -8 -1 -20 6 -27 8 -8 11 -4 11 16 0 30 -7 35 -17 11z"/>
<path d="M2410 3385 c0 -2 11 -16 25 -30 21 -20 35 -25 73 -24 l47 1 -54 13
c-30 7 -60 20 -67 29 -11 15 -24 21 -24 11z"/>
<path d="M2602 3230 c0 -14 2 -19 5 -12 2 6 2 18 0 25 -3 6 -5 1 -5 -13z"/>
<path d="M5504 3125 c-3 -13 -4 -30 -1 -37 3 -7 6 -1 6 13 1 23 6 27 54 36
l52 10 -52 2 c-48 1 -53 -1 -59 -24z"/>
<path d="M5327 3060 c-3 -11 -1 -23 4 -26 5 -3 9 6 9 20 0 31 -6 34 -13 6z"/>
<path d="M5292 3014 c-14 -15 -32 -60 -31 -77 0 -7 7 5 16 26 10 24 22 37 34
37 21 0 26 15 6 23 -6 2 -18 -2 -25 -9z"/>
<path d="M3170 2924 c0 -38 3 -45 16 -40 9 3 27 6 41 6 32 0 23 12 -9 14 -18
1 -24 8 -26 34 -5 49 -22 38 -22 -14z"/>
<path d="M5083 2907 c-13 -13 -23 -28 -23 -35 0 -6 -11 -19 -25 -28 -14 -9
-25 -21 -25 -26 0 -5 21 9 46 31 26 23 51 41 55 41 5 0 9 9 9 20 0 25 -9 25
-37 -3z"/>
<path d="M4857 2843 c-14 -14 -7 -81 9 -87 23 -9 31 -7 14 4 -9 5 -15 25 -15
49 0 23 0 41 -1 41 0 0 -4 -3 -7 -7z"/>
<path d="M3416 2791 c-3 -5 3 -11 15 -14 16 -4 18 -3 8 9 -13 16 -16 17 -23 5z"/>
<path d="M3676 2748 c3 -13 17 -43 29 -68 12 -25 20 -50 18 -56 -2 -6 7 -16
19 -22 25 -14 159 -32 153 -22 -3 4 -27 10 -54 13 -74 9 -89 21 -128 103 -35
73 -51 95 -37 52z"/>
<path d="M4745 2736 c28 -14 51 -26 52 -26 0 0 -1 9 -4 20 -3 11 -11 20 -18
20 -7 0 -28 3 -46 6 -31 6 -30 4 16 -20z"/>
<path d="M3515 2730 c3 -5 8 -10 11 -10 2 0 4 5 4 10 0 6 -5 10 -11 10 -5 0
-7 -4 -4 -10z"/>
<path d="M3897 2635 c-4 -8 -2 -17 3 -20 6 -4 10 3 10 14 0 25 -6 27 -13 6z"/>
<path d="M4600 2600 l-25 -8 27 -1 c15 -1 30 4 33 9 7 11 0 11 -35 0z"/>
<path d="M3910 2587 c0 -11 38 -37 55 -37 15 0 1 18 -25 33 -24 15 -30 15 -30
4z"/>
<path d="M3770 2554 c0 -5 7 -19 15 -30 8 -10 15 -14 15 -8 0 5 -7 19 -15 30
-8 10 -15 14 -15 8z"/>
<path d="M4248 2553 c-16 -2 -28 -8 -28 -13 0 -10 82 -1 95 11 9 9 -15 10 -67
2z"/>
<path d="M3962 2480 c3 -38 11 -66 22 -79 17 -18 17 -21 1 -48 l-17 -28 20 23
c27 29 36 28 63 -10 16 -22 24 -27 27 -17 3 8 16 30 30 49 l25 35 -32 -34 -33
-33 -44 46 c-41 43 -44 50 -44 101 0 34 -4 55 -11 55 -8 0 -10 -20 -7 -60z"/>
<path d="M3833 2476 c15 -14 36 -26 45 -25 12 0 9 4 -9 12 -14 7 -35 18 -45
26 -10 7 -6 2 9 -13z"/>
<path d="M4305 2443 c-9 -32 -25 -70 -36 -85 -21 -30 -19 -34 11 -18 20 11 35
50 44 118 9 59 0 52 -19 -15z"/>
<path d="M4408 2453 c7 -3 16 -2 19 1 4 3 -2 6 -13 5 -11 0 -14 -3 -6 -6z"/>
<path d="M4080 2271 c0 -5 5 -13 10 -16 6 -3 10 -2 10 4 0 5 -4 13 -10 16 -5
3 -10 2 -10 -4z"/>
<path d="M4135 2190 c3 -5 8 -10 11 -10 2 0 4 5 4 10 0 6 -5 10 -11 10 -5 0
-7 -4 -4 -10z"/>
<path d="M5781 2713 c7 -12 15 -20 18 -17 3 2 -3 12 -13 22 -17 16 -18 16 -5
-5z"/>
<path d="M5990 2602 c0 -5 -15 -17 -32 -26 l-33 -16 30 0 c31 0 64 33 45 45
-6 3 -10 2 -10 -3z"/>
<path d="M4594 1875 c9 -30 12 -32 14 -15 2 13 -3 29 -11 37 -13 13 -13 10 -3
-22z"/>
<path d="M4690 9662 c0 -5 13 -15 29 -20 22 -8 30 -18 35 -47 8 -39 60 -105
73 -92 4 5 1 12 -7 17 -13 8 -12 10 2 10 9 0 19 -6 21 -12 3 -9 14 -3 30 17
21 25 27 28 41 16 10 -8 14 -23 12 -38 -4 -20 -2 -23 15 -18 23 8 24 -6 3 -50
-10 -22 -21 -32 -30 -28 -8 3 -14 9 -14 14 0 4 6 6 14 3 8 -3 16 3 19 16 7 28
-19 38 -41 17 -15 -15 -15 -22 2 -89 11 -40 23 -77 28 -83 14 -15 59 46 52 70
-12 40 -14 105 -3 105 40 0 231 -274 252 -362 4 -15 3 -30 -3 -33 -5 -3 -10
-11 -10 -17 0 -7 4 -7 13 0 13 12 16 8 84 -131 15 -32 48 -81 72 -110 23 -29
56 -81 73 -117 66 -143 125 -243 139 -234 10 6 44 -24 51 -46 3 -8 1 -25 -3
-37 -6 -17 -5 -21 6 -17 7 3 15 -2 18 -13 3 -10 5 -1 6 20 1 24 5 36 11 32 16
-10 60 23 60 43 -1 16 -1 16 -14 0 -16 -22 -59 -23 -75 -4 -7 8 -11 31 -10 53
2 26 -6 54 -25 88 -29 51 -70 103 -48 59 6 -12 8 -24 5 -28 -3 -3 -1 -6 6 -6
12 0 28 -34 41 -87 10 -42 -10 -44 -40 -5 -39 50 -108 175 -114 207 -4 18 -25
52 -47 76 -35 39 -99 157 -207 389 -36 76 -85 152 -154 237 -65 80 -161 169
-166 153 -2 -5 -16 -10 -30 -9 -24 0 -25 1 -7 9 11 5 14 9 7 9 -8 1 -12 7 -10
13 3 7 -19 22 -51 36 -66 29 -111 38 -111 24z m135 -102 c3 -5 -1 -10 -9 -10
-9 0 -16 5 -16 10 0 6 4 10 9 10 6 0 13 -4 16 -10z"/>
<path d="M5040 9280 c0 -6 -9 -24 -21 -39 -15 -21 -19 -35 -13 -52 7 -24 7
-24 17 6 5 17 18 40 29 52 11 12 17 26 13 32 -8 14 -25 14 -25 1z"/>
<path d="M5097 9217 c-11 -29 -9 -43 4 -30 6 6 9 19 7 29 -3 18 -4 18 -11 1z"/>
<path d="M5000 9134 c0 -14 -8 -24 -22 -28 -18 -4 -20 -8 -10 -18 6 -6 12 -27
12 -44 0 -18 4 -35 8 -38 5 -3 9 -19 10 -37 0 -17 8 -39 17 -49 9 -10 14 -23
11 -29 -4 -6 1 -33 10 -61 9 -27 14 -58 11 -69 -2 -10 1 -28 8 -41 7 -13 10
-31 8 -40 -3 -9 3 -34 11 -55 9 -20 13 -47 10 -59 -3 -13 1 -27 9 -34 12 -10
16 -8 20 15 3 16 1 32 -4 38 -11 11 -12 35 -1 35 4 0 12 -15 17 -32 7 -24 16
-33 32 -33 12 0 36 -13 53 -28 27 -24 30 -33 25 -59 -5 -21 -3 -33 6 -39 23
-14 26 -11 26 29 0 47 18 83 38 76 19 -8 28 -56 20 -113 -4 -27 -3 -51 2 -54
4 -3 9 22 10 56 3 70 17 92 39 63 8 -11 14 -16 14 -11 0 15 -90 93 -96 83 -4
-6 -26 -7 -53 -3 -72 10 -81 14 -81 41 0 13 -9 32 -20 41 -11 10 -20 23 -20
31 0 7 -4 11 -10 7 -5 -3 -7 -12 -3 -20 3 -8 1 -15 -5 -15 -14 0 -22 24 -12
39 4 7 -2 43 -13 80 -12 38 -21 96 -21 137 -1 46 -5 70 -12 67 -6 -2 -16 9
-22 24 -11 25 -11 26 2 10 13 -17 14 -16 19 3 3 11 1 20 -4 20 -5 0 -9 22 -9
48 0 27 -6 57 -15 68 -14 19 -14 19 -15 -2z m7 -86 c-3 -7 -5 -2 -5 12 0 14 2
19 5 13 2 -7 2 -19 0 -25z"/>
<path d="M5150 9085 c-46 -24 -87 -76 -74 -96 6 -11 96 69 115 104 12 21 14
21 -41 -8z"/>
<path d="M5153 8977 c-24 -37 -33 -65 -34 -97 -5 -147 -6 -140 14 -123 10 10
17 30 17 51 0 38 28 92 47 92 15 0 16 -5 4 -47 -12 -43 10 -35 35 13 10 19 22
34 26 34 5 0 8 5 8 11 0 8 -5 7 -15 -1 -20 -17 -24 -11 -18 23 4 19 8 24 13
17 4 -7 7 3 5 21 -4 49 -4 49 -15 49 -5 0 -10 -13 -10 -30 0 -16 -4 -30 -10
-30 -5 0 -10 -6 -10 -14 0 -18 -49 -58 -61 -50 -14 9 -11 21 17 53 16 19 24
40 22 55 -3 22 -6 19 -35 -27z"/>
<path d="M3712 8769 c-27 -33 -19 -37 18 -9 16 12 22 22 15 28 -6 6 -18 -1
-33 -19z"/>
<path d="M5245 8779 c-4 -6 -5 -13 -2 -16 7 -7 27 6 27 18 0 12 -17 12 -25 -2z"/>
<path d="M5618 8780 c12 -5 29 -7 37 -4 20 8 94 -54 116 -98 24 -46 30 -48 25
-7 -2 21 -19 46 -47 75 -41 41 -47 43 -99 43 -43 0 -50 -2 -32 -9z"/>
<path d="M5470 8774 c0 -6 8 -18 18 -27 20 -18 37 -23 28 -8 -4 5 0 12 6 14 7
3 4 6 -7 6 -12 1 -26 6 -33 13 -7 7 -12 8 -12 2z"/>
<path d="M5321 8748 c-5 -13 -7 -26 -4 -30 7 -12 41 24 36 38 -8 21 -23 17
-32 -8z"/>
<path d="M5213 8713 c-18 -38 -16 -52 3 -25 8 12 14 29 12 37 -2 10 -7 5 -15
-12z"/>
<path d="M5286 8708 c-8 -32 -7 -48 3 -48 12 0 22 53 12 63 -5 5 -11 -2 -15
-15z"/>
<path d="M5365 8720 c3 -5 8 -10 11 -10 2 0 4 5 4 10 0 6 -5 10 -11 10 -5 0
-7 -4 -4 -10z"/>
<path d="M5650 8716 c0 -9 5 -16 10 -16 6 0 10 4 10 9 0 6 -4 13 -10 16 -5 3
-10 -1 -10 -9z"/>
<path d="M5689 8698 c-1 -7 -1 -16 0 -20 0 -5 -4 -8 -10 -8 -8 0 -8 -4 1 -14
6 -8 19 -12 27 -9 13 5 15 2 10 -11 -4 -10 4 -40 19 -72 16 -34 24 -66 22 -84
-4 -25 -2 -27 14 -16 10 6 18 15 18 20 0 22 -44 134 -52 130 -4 -3 -8 8 -8 24
0 18 -6 32 -16 36 -8 3 -13 10 -9 15 3 5 1 12 -5 16 -5 3 -11 0 -11 -7z"/>
<path d="M5330 8675 c-7 -8 -13 -33 -14 -54 -2 -36 -1 -39 17 -30 10 6 21 8
24 5 6 -6 43 38 43 51 0 4 -7 -1 -16 -12 -13 -17 -16 -18 -24 -5 -6 8 -8 20
-6 26 2 6 1 16 -3 23 -6 9 -11 8 -21 -4z"/>
<path d="M5251 8631 c-7 -5 -10 -14 -7 -20 11 -17 23 -13 29 9 6 22 0 25 -22
11z"/>
<path d="M5456 8558 c4 -24 20 -63 35 -88 15 -25 30 -63 34 -86 5 -35 2 -45
-20 -72 -29 -35 -20 -45 10 -12 21 23 45 26 65 8 9 -8 9 -6 -1 7 -9 11 -19 34
-22 50 -3 17 -21 58 -40 91 -19 34 -37 77 -41 97 -10 53 -28 58 -20 5z"/>
<path d="M5656 8568 c8 -44 37 -101 54 -106 9 -3 7 7 -8 31 -11 20 -24 52 -28
72 -3 19 -10 35 -15 35 -5 0 -6 -15 -3 -32z"/>
<path d="M5415 8540 c-3 -5 1 -10 10 -10 9 0 13 5 10 10 -3 6 -8 10 -10 10 -2
0 -7 -4 -10 -10z"/>
<path d="M5154 8514 c4 -15 10 -40 13 -56 3 -16 12 -32 19 -35 7 -2 16 -18 19
-34 4 -16 11 -29 16 -29 14 0 11 24 -6 46 -8 10 -15 32 -15 47 0 31 -28 87
-43 87 -5 0 -6 -12 -3 -26z"/>
<path d="M5391 8455 c0 -5 6 -21 14 -35 8 -14 15 -41 16 -60 1 -19 3 -27 6
-17 7 27 -5 80 -22 103 -8 10 -14 15 -14 9z"/>
<path d="M5600 8366 c0 -9 5 -16 10 -16 6 0 10 4 10 9 0 6 -4 13 -10 16 -5 3
-10 -1 -10 -9z"/>
<path d="M4810 8349 c0 -10 10 -19 25 -21 17 -4 25 -1 25 8 0 23 -4 28 -27 29
-15 0 -23 -5 -23 -16z"/>
<path d="M5611 8294 c-9 -31 -18 -44 -27 -40 -8 3 -14 -1 -14 -8 0 -7 -9 -25
-20 -39 -24 -31 -25 -41 -4 -33 14 5 15 4 4 -9 -7 -9 -10 -18 -7 -21 3 -3 10
4 17 15 6 12 8 21 5 21 -4 0 4 15 17 32 l23 33 6 -30 c4 -19 7 -22 8 -10 0 11
12 32 26 47 32 35 32 48 0 18 l-25 -24 6 47 c8 60 2 60 -15 1z"/>
<path d="M5150 8300 c0 -5 5 -10 11 -10 5 0 7 5 4 10 -3 6 -8 10 -11 10 -2 0
-4 -4 -4 -10z"/>
<path d="M5102 8273 c-7 -12 -12 -32 -12 -45 0 -13 -5 -29 -12 -36 -16 -16 -4
-25 21 -17 21 6 29 31 12 37 -5 2 -3 12 5 22 7 11 17 16 21 12 4 -4 1 -11 -6
-15 -11 -7 -10 -11 6 -19 18 -10 20 -8 19 23 -2 39 -25 74 -27 40 0 -20 -1
-20 -8 0 -8 19 -8 19 -19 -2z"/>
<path d="M5015 8179 c-4 -6 -5 -12 -2 -15 2 -3 7 2 10 11 7 17 1 20 -8 4z"/>
<path d="M5167 8170 c-6 -23 10 -37 25 -22 12 12 4 42 -11 42 -5 0 -11 -9 -14
-20z"/>
<path d="M5599 8145 c-19 -40 -13 -44 19 -15 12 11 19 27 16 35 -9 23 -17 18
-35 -20z"/>
<path d="M3260 2088 c-23 -52 -17 -68 25 -68 37 0 48 17 39 58 -15 63 -38 67
-64 10z"/>
</g>
</svg>
